<?xml version="1.0" encoding="UTF-8"?>
<!DOCTYPE svg PUBLIC "-//W3C//DTD SVG 1.1//EN" "http://www.w3.org/Graphics/SVG/1.1/DTD/svg11.dtd">
<!-- Creator: CorelDRAW 2021 (64-Bit) -->
<svg xmlns="http://www.w3.org/2000/svg" xml:space="preserve" width="50.8mm" height="49.3888mm" version="1.1" style="shape-rendering:geometricPrecision; text-rendering:geometricPrecision; image-rendering:optimizeQuality; fill-rule:evenodd; clip-rule:evenodd"
viewBox="0 0 5080 4938.88"
 xmlns:xlink="http://www.w3.org/1999/xlink"
 xmlns:xodm="http://www.corel.com/coreldraw/odm/2003">
 <defs>
  <style type="text/css">
   <![CDATA[
    .str1 {stroke:#E6E6E6;stroke-width:15.81;stroke-miterlimit:22.9256}
    .str0 {stroke:#E6E6E6;stroke-width:21.08;stroke-miterlimit:22.9256}
    .fil2 {fill:none;fill-rule:nonzero}
    .fil1 {fill:#E6E6E6;fill-rule:nonzero}
    .fil0 {fill:#FF7BAC;fill-rule:nonzero}
    .fil3 {fill:white;fill-rule:nonzero}
   ]]>
  </style>
 </defs>
 <g id="Layer_x0020_1">
  <metadata id="CorelCorpID_0Corel-Layer"/>
  <g id="_2139226484016">
   <g>
    <path class="fil0 str0" d="M1817.84 20.35c0,0 -176.66,316.43 0,460.16 180.34,146.79 333.14,178.17 616.16,160.22 258.81,-16.42 402.25,-108.85 505.24,-258.8 39.82,-57.97 110.91,-147.88 73.97,-308.06 0,0 98.57,49.29 221.81,61.62 123.23,12.32 505.29,12.32 653.11,110.9 147.88,98.58 332.75,255.98 468.28,417.59 135.57,161.6 394.37,482 394.37,482 0,0 -579.21,468.3 -628.49,505.27 -49.3,36.96 -271.11,-184.87 -308.1,-197.18 -36.96,-12.3 -209.5,173.87 -209.5,259.46 0,85.61 24.66,258.13 -36.95,332.06 -61.62,73.94 -147.91,240.11 -147.91,354.22 0,114.08 123.22,644 160.22,730.24 36.95,86.27 36.95,320.46 73.93,394.35 36.97,73.94 172.51,629.01 209.53,678.33 36.92,49.27 73.91,280.38 73.91,280.38 0,0 -86.27,52.34 -246.47,113.95 -265.19,101.98 -822.34,168.66 -1269.32,231.48 -427.22,60.07 -1220,150.01 -1256.96,39.09 -36.97,-110.89 -61.62,-431.29 -86.25,-616.13 -57.01,-427.35 -23.13,-1002.41 0,-887.34 -24.66,-123.22 -73.94,-492.91 -73.94,-653.09 0,-160.21 110.91,-369.71 0,-443.65 -110.91,-73.96 -147.89,-454.63 -98.59,-553.89 49.29,-99.24 -234.13,-160.85 -320.39,-222.48 -86.3,-61.61 -480.61,-234.14 -480.61,-234.14 0,0 295.76,-517.56 308.09,-579.2 12.32,-61.61 110.9,-418.98 505.24,-443.65 394.34,-24.64 234.15,36.98 394.34,-24.64 160.54,-61.44 505.53,-188.8 505.53,-188.8l-0.25 -0.27z"/>
    <path class="fil1" d="M838.71 244.28c11.91,56.26 22.4,112.81 32.71,169.4 8.85,56.82 17.23,113.71 24.81,170.72 7.58,57 14.44,114.14 19.94,171.42 5.4,57.28 9.79,114.74 10.13,172.46 0.09,28.79 -0.94,57.99 -5.41,86.55l-12.33 85.39 -26.23 170.44c-8.7,56.8 -17.28,113.61 -24.79,170.54 -4.46,28.37 -8.66,56.77 -12.21,85.27 -3.39,28.49 -6.68,57.08 -6.61,85.82 -1.52,-28.74 0.33,-57.56 2.3,-86.26 2.13,-28.71 4.9,-57.36 7.94,-85.98 7.54,-57.03 16.13,-113.9 24.83,-170.71l26.23 -170.41c7.85,-56.99 19.18,-113.37 17.65,-170.62 -0.34,-57.24 -4.72,-114.55 -10.1,-171.67 -5.49,-57.14 -12.34,-114.17 -19.91,-171.1 -7.59,-56.93 -15.9,-113.78 -24.81,-170.52 -7.33,-56.87 -15.68,-113.74 -24.04,-170.61l-0.1 -0.13z"/>
    <g>
     <g>
      <path class="fil2 str1" d="M4649.98 1021.46c-4.71,2.72 -9.65,5.63 -14.8,8.69"/>
      <g>
       <path class="fil1" d="M4625.15 1028.19l0.12 0 0 15.82 -0.12 0 0 -15.82z"/>
      </g>
      <g>
       <path class="fil1" d="M4312.77 1250.08l-11.18 -11.18 1.13 -0.93 0.58 -0.41 1.72 -1.17 2.79 -1.91 3.83 -2.6 4.8 -3.28 5.72 -3.88 6.58 -4.47 7.41 -5.02 8.16 -5.53 8.88 -5.99 9.52 -6.43 10.14 -6.83 10.68 -7.17 11.18 -7.51 11.63 -7.77 12.02 -8.03 12.36 -8.22 12.64 -8.41 12.89 -8.53 13.06 -8.61 13.19 -8.67 13.27 -8.69 13.29 -8.67 13.26 -8.6 13.18 -8.53 13.05 -8.37 12.86 -8.2 12.61 -8 12.33 -7.75 11.99 -7.46 11.58 -7.14 11.14 -6.78 8.18 13.52 -11.06 6.74 -11.52 7.1 -11.93 7.42 -12.27 7.71 -12.57 7.98 -12.82 8.18 -13.01 8.35 -13.14 8.49 -13.24 8.6 -13.27 8.65 -13.23 8.67 -13.17 8.65 -13.04 8.61 -12.87 8.51 -12.62 8.39 -12.36 8.22 -12 8.01 -11.61 7.77 -11.16 7.49 -10.68 7.17 -10.12 6.81 -9.52 6.43 -8.86 5.99 -8.16 5.51 -7.39 5.02 -6.58 4.47 -5.7 3.88 -4.8 3.26 -3.81 2.6 -2.79 1.91 -1.72 1.17 -0.58 0.39 1.13 -0.93zm-11.18 -11.18l0.5 -0.5 0.63 -0.43 -1.13 0.93zm-271.17 271.12l271.17 -271.12 11.18 11.18 -271.17 271.12 -0.99 0.84 -10.19 -12.02zm11.18 11.18l-0.46 0.46 -0.53 0.38 0.99 -0.84zm-71.07 31.48l60.88 -43.5 9.2 12.86 -60.88 43.5 -9.2 -12.86z"/>
      </g>
      <path class="fil2 str1" d="M3975.22 1559.14l-14.08 9.96"/>
     </g>
    </g>
    <path class="fil1" d="M3905.53 283.19l-22.96 98.45 -11.63 49.19c-3.96,16.38 -8.87,32.48 -13.19,48.76l-53.35 194.85 0.12 -0.48c-12.75,70.35 -25.06,140.81 -36.92,211.32 -11.79,70.52 -23.26,141.11 -33.23,211.85 -4.85,35.35 -3.9,70.82 -6.46,106.14 -1.25,17.42 5.09,35.36 5.09,53.27l0 53.64 -5.76 53.64 -4.68 53.66 -5.46 107.29 -4.72 -107.29 3.67 -53.66 5.49 -53.64 0 -53.64c0,-17.85 -6.39,-35.74 -5.11,-54.02 2.62,-36.03 4.57,-71.48 9.43,-107 10,-70.93 20.01,-141.58 31.82,-212.16 11.85,-70.58 21.87,-141.04 34.64,-211.47l-2.06 -0.22 0 -0.24 54.88 -194.87c4.57,-16.2 9.29,-32.57 14.25,-48.66l15.42 -48.25 30.78 -96.46 -0.06 0z"/>
    <g id="_2139226491696">
     <g>
      <path class="fil2 str1" d="M3847.52 4313.58c-2.38,1.76 -7.63,4.26 -15.42,7.39"/>
      <g>
       <path class="fil1" d="M3815.6 4319.8l0.11 -0.12 11.66 10.68 -0.11 0.12 -11.66 -10.68z"/>
      </g>
      <g>
       <path class="fil1" d="M3101.15 4542.88l-3.42 -15.44 0 0 10.4 -2.39 12.62 -3.06 14.71 -3.7 16.63 -4.28 18.41 -4.82 20.05 -5.33 21.54 -5.79 22.88 -6.22 24.09 -6.6 25.15 -6.95 26.07 -7.26 26.86 -7.52 27.49 -7.76 27.99 -7.94 28.32 -8.09 28.55 -8.2 28.62 -8.27 28.54 -8.3 28.32 -8.29 27.97 -8.24 27.46 -8.16 26.82 -8.03 26.05 -7.85 25.1 -7.66 24.05 -7.41 22.83 -7.12 21.47 -6.8 19.98 -6.43 18.32 -6.02 16.54 -5.58 14.59 -5.08 12.51 -4.55 5.54 14.8 -12.75 4.65 -14.77 5.14 -16.66 5.62 -18.44 6.06 -20.06 6.45 -21.53 6.82 -22.89 7.14 -24.09 7.43 -25.16 7.66 -26.07 7.87 -26.86 8.05 -27.5 8.16 -27.99 8.24 -28.36 8.31 -28.56 8.3 -28.64 8.29 -28.57 8.2 -28.36 8.09 -28.01 7.96 -27.51 7.76 -26.88 7.52 -26.11 7.28 -25.17 6.95 -24.13 6.62 -22.92 6.22 -21.58 5.81 -20.09 5.33 -18.47 4.84 -16.71 4.3 -14.81 3.72 -12.78 3.1 -10.62 2.45 0 0zm-814.19 110.82l-1.74 -15.72 0 0 11.75 -1.32 14.4 -1.68 16.87 -1.99 19.16 -2.29 21.27 -2.57 23.21 -2.83 24.96 -3.06 26.56 -3.28 27.96 -3.48 29.19 -3.66 30.26 -3.82 31.13 -3.95 31.83 -4.07 32.36 -4.17 32.71 -4.24 32.89 -4.3 32.89 -4.34 32.71 -4.35 32.36 -4.34 31.83 -4.32 31.12 -4.28 30.24 -4.21 29.18 -4.13 27.96 -4.01 26.53 -3.89 24.95 -3.74 23.18 -3.59 21.24 -3.39 19.11 -3.18 16.8 -2.95 14.3 -2.7 11.6 -2.41 3.42 15.44 -11.96 2.49 -14.54 2.74 -16.96 2.97 -19.23 3.2 -21.32 3.41 -23.26 3.59 -25.01 3.76 -26.59 3.89 -27.98 4.03 -29.22 4.13 -30.28 4.21 -31.14 4.28 -31.85 4.32 -32.38 4.36 -32.73 4.35 -32.91 4.34 -32.91 4.3 -32.73 4.24 -32.36 4.17 -31.85 4.07 -31.15 3.95 -30.26 3.82 -29.21 3.66 -27.98 3.48 -26.56 3.3 -24.98 3.06 -23.23 2.83 -21.29 2.57 -19.18 2.29 -16.89 1.99 -14.44 1.68 -11.81 1.34 0 0zm-921.99 71.35l-6.26 -14.52 -0.01 0 8.9 -2.91 12.06 -2.65 15.4 -2.63 18.61 -2.63 21.61 -2.62 24.41 -2.64 26.97 -2.65 29.29 -2.64 31.39 -2.64 33.21 -2.63 34.82 -2.62 36.17 -2.6 37.29 -2.58 38.17 -2.55 38.79 -2.52 39.19 -2.48 39.31 -2.44 39.23 -2.39 38.88 -2.34 38.28 -2.28 37.45 -2.22 36.38 -2.16 35.06 -2.08 33.49 -2 31.7 -1.93 29.63 -1.83 27.34 -1.75 24.79 -1.65 22 -1.53 18.96 -1.44 15.66 -1.32 12.08 -1.2 1.74 15.72 -12.4 1.22 -15.82 1.34 -19.08 1.44 -22.06 1.55 -24.85 1.65 -27.36 1.75 -29.67 1.83 -31.7 1.93 -33.51 2 -35.06 2.08 -36.38 2.16 -37.45 2.22 -38.28 2.28 -38.86 2.34 -39.21 2.39 -39.31 2.44 -39.15 2.48 -38.77 2.52 -38.13 2.55 -37.25 2.58 -36.13 2.58 -34.76 2.62 -33.15 2.63 -31.29 2.64 -29.19 2.62 -26.83 2.63 -24.23 2.62 -21.37 2.6 -18.23 2.57 -14.84 2.53 -11.04 2.43 -6.62 2.13 -0.01 0zm-214.98 3.03l2.1 -15.66 4.3 0.56 4.71 0.61 5.09 0.63 5.41 0.65 5.77 0.65 6.06 0.67 6.32 0.67 6.56 0.64 6.79 0.63 6.99 0.6 7.16 0.57 7.29 0.52 7.41 0.48 7.5 0.43 7.55 0.34 7.61 0.29 7.6 0.21 7.58 0.12 7.55 0.02 7.48 -0.08 7.37 -0.19 7.26 -0.3 7.09 -0.43 6.92 -0.55 6.71 -0.68 6.46 -0.84 6.21 -0.97 5.9 -1.13 5.56 -1.27 5.21 -1.43 4.81 -1.58 4.39 -1.73 6.26 14.52 -5.29 2.09 -5.61 1.84 -5.91 1.63 -6.18 1.41 -6.44 1.23 -6.67 1.05 -6.9 0.88 -7.07 0.72 -7.26 0.59 -7.39 0.43 -7.52 0.32 -7.63 0.19 -7.7 0.08 -7.75 -0.02 -7.78 -0.12 -7.78 -0.21 -7.75 -0.29 -7.71 -0.36 -7.64 -0.43 -7.53 -0.48 -7.41 -0.54 -7.26 -0.57 -7.09 -0.62 -6.89 -0.63 -6.66 -0.66 -6.42 -0.67 -6.12 -0.67 -5.83 -0.67 -5.51 -0.65 -5.15 -0.65 -4.77 -0.61 -4.36 -0.58z"/>
      </g>
      <path class="fil2 str1" d="M1150.98 4720.13c-10.64,-1.44 -16.95,-2.44 -16.95,-2.44"/>
     </g>
    </g>
    <g>
     <g>
      <path class="fil2 str1" d="M195.58 1096.17l15.48 7.44"/>
      <path class="fil2 str1" d="M221.26 1108.53l0.1 0"/>
      <g>
       <path class="fil1" d="M606.78 1302.41l-388.84 -186.75 6.84 -14.26 388.84 186.75 1.7 1.1 -8.54 13.16zm6.84 -14.26l0.93 0.45 0.77 0.65 -1.7 -1.1zm150.86 148.52l-159.4 -135.36 10.24 -12.06 159.4 135.36 -10.24 12.06z"/>
      </g>
      <path class="fil2 str1" d="M769.6 1430.64l13.16 11.1"/>
     </g>
    </g>
    <path class="fil1" d="M1662.23 114.75c-11.86,47.72 -17.93,96.75 -19.65,145.71 -1.58,48.97 1.9,98.15 12.22,145.82 9.75,47.68 26.52,94.18 52.51,135.32 25.39,41.67 61.67,75.09 101.07,103.85 79.44,56.97 170.56,96.97 264.62,123.43 47.16,13.03 95.4,22.32 144.08,26.45 24.34,2 48.79,2.68 73.16,1.67 24.4,-1.27 48.96,-3.05 73.38,-5.13 97.73,-8.48 195.2,-22.93 289.63,-49.3 47.16,-13.22 93.46,-29.52 137.88,-49.96 22.22,-10.2 43.87,-21.58 64.87,-34.07 20.85,-12.5 40.7,-26.83 59.68,-42.18 37.96,-30.75 72.49,-65.72 104.19,-102.98 31.69,-37.3 60.49,-77.09 85.78,-118.94 25.38,-41.61 48.96,-85.3 58.33,-133.52 10.49,-47.76 15.98,-97.16 11.66,-146.18 5.77,48.9 1.73,98.65 -7.43,147.06 -8.06,49.12 -30.75,94.4 -55.14,137.08 -25.45,42.42 -54.69,82.39 -86.59,120.09 -32.01,37.62 -66.87,72.93 -105.35,104.12 -19.26,15.54 -39.38,30.07 -60.69,42.87 -21.28,12.65 -43.21,24.17 -65.68,34.48 -44.93,20.69 -91.67,37.12 -139.19,50.45 -95.13,26.56 -193.11,41.07 -291.21,49.58 -24.56,2.1 -49.07,3.86 -73.76,5.15 -24.78,1.05 -49.58,0.35 -74.22,-1.68 -49.33,-4.16 -98.08,-13.56 -145.68,-26.72 -94.97,-26.75 -186.8,-67.01 -267.4,-124.77 -39.8,-28.98 -77.33,-63.58 -103.3,-106.24 -26.51,-42.19 -43.93,-89.62 -53.7,-138.19 -9.23,-48.78 -11.1,-98.55 -8.09,-147.76 3.2,-49.2 10.75,-98.06 24.03,-145.43l-0.01 -0.08z"/>
   </g>
   <g>
    <path class="fil3" d="M961.77 1935.19l-0.42 -29.83 139.02 -92.94 19.76 29.56 -139.02 92.94 -0.41 -29.83 -18.93 30.1zm0 0l-23.21 -14.59 22.79 -15.24 0.42 29.83zm151.05 73.99l-9.46 15.05 -141.59 -89.04 18.93 -30.1 141.59 89.04 -9.47 15.05zm2392.17 -114.9l-2506.03 35.48 -0.28 -20 2506.03 -35.48 0.28 20zm37.34 4.4l-19.78 -29.56 0.43 29.83 -141.59 -88.96 18.92 -30.11 141.59 88.96 0.43 29.84zm0 0l-0.43 -29.84 23.21 14.59 -22.78 15.25zm-148.91 78.23l-9.89 -14.78 139.02 -93.01 19.78 29.56 -139.02 93.01 -9.89 -14.78z"/>
   </g>
   <g>
    <path class="fil3" d="M1137.02 3351.88l-0.45 -29.83 138.93 -93.07 19.8 29.54 -138.93 93.07 -0.45 -29.83 -18.9 30.12zm0 0l-23.22 -14.57 22.77 -15.26 0.45 29.83zm151.13 73.85l-9.45 15.06 -141.68 -88.91 18.9 -30.12 141.68 88.91 -9.45 15.06zm2222.24 -114.61l-2336.18 35.29 -0.3 -20 2336.18 -35.29 0.3 20zm37.34 4.36l-19.8 -29.54 0.45 29.83 -141.67 -88.83 18.89 -30.13 141.67 88.84 0.46 29.83zm0 0l-0.46 -29.83 23.23 14.56 -22.77 15.27zm-148.83 78.37l-9.9 -14.77 138.93 -93.14 19.8 29.54 -138.93 93.14 -9.9 -14.77z"/>
   </g>
   <g>
    <path class="fil3" d="M1145.59 4266.21l-0.54 -29.83 138.63 -93.51 19.88 29.47 -138.63 93.52 -0.54 -29.83 -18.8 30.18zm0 0l-23.27 -14.49 22.73 -15.34 0.54 29.83zm151.36 73.36l-9.4 15.09 -141.96 -88.45 18.8 -30.18 141.97 88.45 -9.41 15.09zm2450.48 -125.95l-2564.68 47 -0.36 -20 2564.68 -47 0.36 20zm37.35 4.23l-19.9 -29.47 0.55 29.83 -141.96 -88.38 18.79 -30.18 141.97 88.37 0.55 29.83zm0 0l-0.55 -29.83 23.27 14.49 -22.72 15.34zm-148.58 78.86l-9.95 -14.74 138.63 -93.59 19.9 29.47 -138.63 93.59 -9.95 -14.73z"/>
   </g>
   <path class="fil3" d="M1894.33 1870.65l0 -211.17 102.18 0c24.3,0 43.14,4.37 56.54,13.05 13.4,8.69 20.09,21.12 20.09,37.3 0,28.72 -16.06,44.62 -48.25,47.74 16.81,1.19 30.49,6.3 40.99,15.27 10.5,8.97 15.78,21.52 15.78,37.58 0,9.88 -1.93,18.56 -5.79,26.06 -3.92,7.49 -8.74,13.34 -14.59,17.54 -5.79,4.2 -12.71,7.6 -20.78,10.22 -8,2.61 -15.49,4.31 -22.42,5.16 -6.92,0.85 -14.08,1.25 -21.51,1.25l-102.24 0zm44.28 -20.44l51.09 0c13.57,0 24.29,-3.4 32.3,-10.16 8,-6.75 11.98,-17.03 11.98,-30.76 0,-10.9 -3.86,-20.1 -11.64,-27.71 -7.78,-7.6 -18.62,-11.41 -32.59,-11.41l-34.11 0 0 -20.43 37.46 0c23.85,0 35.77,-11.47 35.77,-34.4 0,-23.62 -11.92,-35.43 -35.82,-35.43l-54.44 0 0 170.3z"/>
   <path id="_1" class="fil3" d="M2103.74 1816.78c0,-6.42 1.13,-17.09 3.35,-31.96 2.21,-14.87 4.43,-28.1 6.64,-39.74l3.29 -17.48 37.58 0c-5.51,44.73 -8.29,75.72 -8.29,93.04 0,11.98 2.73,21.29 8.12,28.04 5.45,6.7 14.65,10.05 27.59,10.05 23.9,0 35.82,-12.72 35.82,-38.09 0,-7.66 -0.85,-19.25 -2.5,-34.8 -1.64,-15.55 -3.29,-29.12 -4.99,-40.76l-2.45 -17.48 39.23 0c8.86,44.9 13.28,74.65 13.28,89.18 0,8.34 -1.36,15.78 -4.08,22.42 -2.73,6.59 -6.42,12.04 -11.13,16.35 -4.71,4.37 -10.39,7.89 -17.09,10.67 -6.69,2.78 -13.85,4.77 -21.45,6.02 -7.61,1.19 -15.84,1.82 -24.64,1.82 -8.86,0 -17.09,-0.63 -24.58,-1.82 -7.55,-1.25 -14.7,-3.24 -21.46,-6.02 -6.75,-2.78 -12.49,-6.3 -17.14,-10.67 -4.66,-4.31 -8.29,-9.76 -11.01,-16.35 -2.73,-6.64 -4.09,-14.08 -4.09,-22.42z"/>
   <path id="_2" class="fil3" d="M2270.52 1851.58l8.63 -13.34c0.79,0.56 1.87,1.3 3.23,2.27 1.42,0.91 4.37,2.55 8.92,4.88 4.54,2.33 9.25,4.43 14.13,6.19 4.88,1.76 10.96,3.4 18.28,4.88 7.32,1.53 14.59,2.27 21.8,2.27 22.7,0 34.06,-6.25 34.06,-18.68 0,-5.73 -3.07,-10.27 -9.14,-13.62 -6.08,-3.35 -18.85,-8.01 -38.21,-13.97 -16.29,-4.99 -28.38,-11.18 -36.21,-18.5 -7.89,-7.32 -11.81,-16.97 -11.81,-28.95 0,-12.15 5.68,-22.03 16.97,-29.52 11.3,-7.55 27.08,-11.3 47.35,-11.3 24.8,0 47.06,6.25 66.75,18.68l-8.11 13.62c-18.96,-11.29 -38.09,-16.97 -57.51,-16.97 -16.4,0 -24.58,5.45 -24.58,16.29 0,4.71 2.67,8.63 8.06,11.87 5.4,3.17 15.84,7.09 31.51,11.63 9.82,2.78 18.33,5.96 25.49,9.48 7.15,3.58 12.6,6.98 16.46,10.22 3.8,3.29 6.81,6.93 8.97,10.84 2.16,3.98 3.52,7.38 4.03,10.28 0.57,2.84 0.85,6.07 0.85,9.65 0,13.39 -5.96,24.12 -17.94,32.18 -11.98,8.07 -29.69,12.1 -53.19,12.1 -9.31,0 -18.33,-0.8 -27.19,-2.33 -8.8,-1.53 -16.18,-3.41 -22.2,-5.56 -5.96,-2.22 -11.24,-4.38 -15.89,-6.59 -4.6,-2.21 -8,-4.14 -10.22,-5.68l-3.29 -2.32z"/>
   <path id="_3" class="fil3" d="M2425.55 1742.93l0 -15.33 27.24 0 0 -40.93 40.88 0 0 40.93 35.76 0 0 15.33 -35.76 0 0 66.36c0,7.43 0.11,13.45 0.39,17.99 0.29,4.54 0.85,8.86 1.76,12.89 0.91,4.03 2.1,7.15 3.58,9.25 1.48,2.1 3.69,3.92 6.47,5.51 2.84,1.53 6.07,2.55 9.76,3.06 3.64,0.51 8.24,0.74 13.8,0.74l0 15.33c-14.19,0 -25.83,-0.91 -34.97,-2.67 -9.14,-1.76 -16.97,-4.88 -23.44,-9.43 -6.53,-4.48 -11.19,-10.61 -13.97,-18.44 -2.84,-7.84 -4.26,-17.72 -4.26,-29.69l0 -70.9 -27.24 0z"/>
   <path id="_4" class="fil3" d="M2531.13 1805.94c0,-9.94 1.76,-19.76 5.33,-29.41 3.52,-9.65 8.58,-18.33 15.05,-26.17 6.47,-7.83 14.76,-14.13 24.8,-18.96 10.11,-4.82 21.12,-7.21 33.1,-7.21 11.92,0 22.93,2.39 33.04,7.21 10.05,4.83 18.33,11.13 24.8,18.96 6.53,7.84 11.53,16.52 15.16,26.17 3.58,9.65 5.39,19.47 5.39,29.41 0,10.33 -1.64,19.58 -4.88,27.75 -3.29,8.12 -7.49,14.71 -12.66,19.65 -5.16,4.93 -11.24,9.02 -18.33,12.2 -7.1,3.24 -14.14,5.45 -21.06,6.7 -6.93,1.19 -14.08,1.82 -21.46,1.82 -7.44,0 -14.59,-0.63 -21.52,-1.82 -6.92,-1.25 -13.9,-3.46 -20.94,-6.7 -7.04,-3.18 -13.12,-7.27 -18.28,-12.2 -5.17,-4.94 -9.37,-11.53 -12.66,-19.65 -3.24,-8.17 -4.88,-17.42 -4.88,-27.75zm42.57 3.35c0,16.51 3.24,28.89 9.65,37.12 6.42,8.23 15.1,12.32 26.06,12.32 10.96,0 19.64,-4.09 26.11,-12.32 6.47,-8.23 9.71,-20.61 9.71,-37.12 0,-8.58 -0.57,-16.64 -1.76,-24.3 -1.14,-7.66 -3.01,-15.04 -5.56,-22.14 -2.5,-7.15 -6.25,-12.77 -11.07,-17.03 -4.89,-4.2 -10.73,-6.3 -17.43,-6.3 -6.76,0 -12.6,2.1 -17.43,6.3 -4.88,4.26 -8.57,9.88 -11.12,17.03 -2.56,7.1 -4.38,14.48 -5.51,22.14 -1.08,7.66 -1.65,15.72 -1.65,24.3z"/>
   <path class="fil3" d="M1789.31 3190.61c0,-14.08 2.5,-27.88 7.5,-41.45 4.99,-13.51 11.86,-25.65 20.6,-36.33 8.75,-10.73 19.76,-19.36 32.99,-25.88 13.22,-6.53 27.53,-9.82 42.8,-9.82 15.33,0 29.35,3.06 42.18,9.14 12.83,6.13 22.71,14.41 29.69,24.97l-17.14 12.15c-4.77,-6.41 -11.47,-12.09 -20.1,-16.92 -8.69,-4.82 -17.37,-7.2 -26.11,-7.2 -10.11,0 -19.02,1.81 -26.74,5.39 -7.67,3.63 -13.91,8.34 -18.62,14.13 -4.71,5.85 -8.57,12.89 -11.53,21.18 -3,8.23 -5.05,16.57 -6.18,25.03 -1.08,8.4 -1.65,17.54 -1.65,27.25 0,13.91 1.65,26.12 5,36.73 3.29,10.56 7.89,19.02 13.73,25.26 5.79,6.3 12.32,10.96 19.59,14.08 7.26,3.12 15.1,4.66 23.56,4.66 14.19,0 26.34,-2.9 36.39,-8.63 10.1,-5.79 17.65,-12.66 22.65,-20.67l16.97 12.32c-15.21,26.06 -41.33,39.12 -78.34,39.12 -10.45,0 -20.44,-0.97 -30.03,-2.9 -9.59,-1.93 -19.19,-5.39 -28.84,-10.33 -9.65,-4.94 -17.94,-11.24 -24.86,-18.9 -6.93,-7.67 -12.55,-17.66 -16.92,-30.04 -4.37,-12.37 -6.59,-26.45 -6.59,-42.34z"/>
   <path id="_1_0" class="fil3" d="M1994.02 3105.45c0,-5.33 1.99,-9.93 5.91,-13.91 3.97,-3.91 9.14,-5.9 15.55,-5.9 6.53,0 11.7,1.93 15.44,5.85 3.81,3.86 5.68,8.51 5.68,13.96 0,5.23 -1.87,9.77 -5.68,13.63 -3.74,3.8 -8.91,5.73 -15.44,5.73 -6.41,0 -11.58,-1.93 -15.55,-5.73 -3.92,-3.86 -5.91,-8.4 -5.91,-13.63zm1.02 186.26l0 -143.06 40.88 0 0 143.06 -40.88 0z"/>
   <path id="_2_1" class="fil3" d="M2062.71 3291.71l0 -143.06 40.88 0 0 10.11c15.33,-9.03 31.79,-13.51 49.44,-13.51 9.2,0 17.54,1.19 25.09,3.57 7.5,2.39 14.14,6.02 19.87,10.9 5.68,4.83 10.11,11.36 13.29,19.48 3.12,8.17 4.71,17.59 4.71,28.32 0,18.05 -5.68,46.16 -17.03,84.19l-28.95 0c2.27,-28.16 3.4,-47.34 3.4,-57.56 0,-16.75 -1.3,-29.86 -3.97,-39.34 -2.67,-9.48 -6.64,-16.13 -11.87,-19.99 -5.28,-3.8 -12.37,-5.73 -21.34,-5.73 -9.76,0 -20.66,2.27 -32.64,6.81l0 115.81 -40.88 0z"/>
   <path id="_3_2" class="fil3" d="M2224.45 3163.98l0 -15.33 27.24 0 0 -40.93 40.88 0 0 40.93 35.76 0 0 15.33 -35.76 0 0 66.36c0,7.44 0.11,13.46 0.4,18 0.28,4.54 0.85,8.85 1.76,12.89 0.9,4.03 2.1,7.15 3.57,9.25 1.48,2.1 3.69,3.92 6.47,5.51 2.84,1.53 6.08,2.55 9.77,3.06 3.63,0.51 8.23,0.74 13.79,0.74l0 15.33c-14.19,0 -25.83,-0.91 -34.97,-2.67 -9.14,-1.76 -16.97,-4.88 -23.44,-9.43 -6.53,-4.48 -11.19,-10.61 -13.97,-18.45 -2.84,-7.83 -4.26,-17.71 -4.26,-29.69l0 -70.9 -27.24 0z"/>
   <path id="_4_3" class="fil3" d="M2338.55 3237.84c0,-6.42 1.13,-17.09 3.35,-31.96 2.21,-14.88 4.43,-28.1 6.64,-39.74l3.29 -17.49 37.58 0c-5.5,44.74 -8.29,75.73 -8.29,93.05 0,11.98 2.73,21.29 8.12,28.04 5.45,6.7 14.65,10.05 27.59,10.05 23.9,0 35.82,-12.72 35.82,-38.09 0,-7.67 -0.85,-19.25 -2.5,-34.8 -1.64,-15.56 -3.29,-29.12 -4.99,-40.76l-2.44 -17.49 39.23 0c8.85,44.91 13.28,74.65 13.28,89.19 0,8.34 -1.36,15.78 -4.09,22.42 -2.72,6.59 -6.41,12.04 -11.13,16.35 -4.71,4.37 -10.38,7.89 -17.08,10.67 -6.7,2.78 -13.85,4.77 -21.46,6.02 -7.61,1.19 -15.84,1.82 -24.64,1.82 -8.85,0 -17.09,-0.63 -24.58,-1.82 -7.55,-1.25 -14.7,-3.24 -21.46,-6.02 -6.75,-2.78 -12.49,-6.3 -17.14,-10.67 -4.66,-4.31 -8.29,-9.76 -11.01,-16.35 -2.73,-6.64 -4.09,-14.08 -4.09,-22.42z"/>
   <path id="_5" class="fil3" d="M2518.56 3291.71l0 -143.06 40.88 0 0 10.17c12.66,-9.03 25.43,-13.57 38.43,-13.57 12.94,0 23.45,3.97 31.39,11.92l-20.43 25.66c-3.41,-3.01 -7.72,-5.51 -12.78,-7.44 -5.11,-1.93 -9.93,-2.89 -14.47,-2.89 -7.55,0 -14.93,1.13 -22.14,3.46l0 115.75 -40.88 0z"/>
   <path id="_6" class="fil3" d="M2605.48 3257.65c0,-9.08 2.04,-18.56 6.07,-28.44 4.03,-9.88 9.99,-19.47 17.77,-28.78 7.84,-9.31 16.92,-17.89 27.31,-25.66 10.39,-7.84 22.48,-14.37 36.44,-19.64 13.91,-5.23 28.33,-8.58 43.32,-9.88 4.88,24.46 11.52,49.95 20.04,76.46 8.45,26.52 17.82,49.85 27.98,70l-44.39 0c-7.78,-14.76 -15.56,-34.06 -23.45,-57.96 -7.89,-23.84 -13.73,-45.36 -17.59,-64.55 -14.65,6.42 -26.8,17.2 -36.45,32.31 -9.65,15.15 -14.48,29.91 -14.48,44.33 0,7.95 2.33,14.19 6.93,18.68 4.6,4.48 11.35,6.75 20.32,6.75 12.44,0 24.98,-3.97 37.64,-11.97l4.94 13.62c-8.97,7.32 -19.53,12.89 -31.73,16.63 -12.21,3.69 -24.64,5.57 -37.24,5.57 -12.44,0 -22.77,-3.24 -31.06,-9.77 -8.23,-6.47 -12.37,-15.72 -12.37,-27.7z"/>
   <path class="fil3" d="M1791.04 4104.33c0,-14.08 2.5,-27.88 7.5,-41.45 4.99,-13.51 11.86,-25.65 20.6,-36.33 8.75,-10.73 19.76,-19.36 32.99,-25.88 13.22,-6.53 27.53,-9.82 42.8,-9.82 15.33,0 29.35,3.06 42.18,9.14 12.83,6.13 22.71,14.41 29.69,24.97l-17.14 12.15c-4.77,-6.41 -11.47,-12.09 -20.1,-16.92 -8.69,-4.82 -17.37,-7.2 -26.11,-7.2 -10.11,0 -19.02,1.81 -26.74,5.39 -7.67,3.63 -13.91,8.34 -18.62,14.13 -4.71,5.85 -8.57,12.89 -11.53,21.18 -3,8.23 -5.05,16.57 -6.18,25.03 -1.08,8.4 -1.65,17.54 -1.65,27.25 0,13.91 1.65,26.12 5,36.73 3.29,10.56 7.89,19.02 13.73,25.26 5.79,6.3 12.32,10.96 19.59,14.08 7.26,3.12 15.1,4.66 23.56,4.66 14.19,0 26.34,-2.9 36.39,-8.63 10.1,-5.79 17.65,-12.66 22.65,-20.67l16.97 12.32c-15.21,26.06 -41.33,39.12 -78.34,39.12 -10.45,0 -20.44,-0.97 -30.03,-2.9 -9.59,-1.93 -19.19,-5.39 -28.84,-10.33 -9.65,-4.94 -17.94,-11.24 -24.86,-18.9 -6.93,-7.67 -12.55,-17.66 -16.92,-30.04 -4.37,-12.37 -6.59,-26.45 -6.59,-42.34z"/>
   <path id="_1_4" class="fil3" d="M1990.36 4171.37c0,-9.08 2.04,-18.56 6.07,-28.44 4.03,-9.88 9.99,-19.47 17.77,-28.78 7.84,-9.31 16.92,-17.89 27.31,-25.66 10.39,-7.84 22.48,-14.37 36.44,-19.64 13.91,-5.23 28.33,-8.58 43.32,-9.88 4.88,24.46 11.52,49.95 20.04,76.46 8.45,26.52 17.82,49.85 27.98,70l-44.39 0c-7.78,-14.76 -15.56,-34.06 -23.45,-57.96 -7.89,-23.84 -13.73,-45.36 -17.59,-64.55 -14.65,6.42 -26.8,17.2 -36.45,32.31 -9.65,15.15 -14.48,29.91 -14.48,44.33 0,7.95 2.33,14.19 6.93,18.68 4.6,4.48 11.35,6.75 20.32,6.75 12.44,0 24.98,-3.97 37.64,-11.97l4.94 13.62c-8.97,7.32 -19.53,12.89 -31.73,16.63 -12.21,3.69 -24.64,5.57 -37.24,5.57 -12.44,0 -22.77,-3.24 -31.06,-9.77 -8.23,-6.47 -12.37,-15.72 -12.37,-27.7z"/>
   <path id="_2_5" class="fil3" d="M2172.47 4142.36c0,-9.93 1.99,-19.36 5.96,-28.21 4.03,-8.86 9.93,-17.09 17.88,-24.7 7.89,-7.6 18.39,-14.02 31.45,-19.36 13.06,-5.33 28.16,-9.02 45.19,-11.12l0 15.33c-19.7,3.23 -34.29,10.5 -43.71,21.79 -9.48,11.36 -14.2,24.24 -14.2,38.78 0,16.35 3.52,28.78 10.62,37.29 7.1,8.58 17.2,12.83 30.26,12.83 8.34,0 17.99,-2.15 28.95,-6.47l0 -184.27 40.87 0 0 211.18 -40.87 0 0 -9.82c-12.43,8.8 -27.82,13.23 -46.21,13.23 -19.76,0 -35.71,-5.79 -47.91,-17.32 -12.21,-11.58 -18.28,-27.93 -18.28,-49.16z"/>
   <path id="_3_6" class="fil3" d="M2349.08 4136.63c0,-13.74 3.18,-26.46 9.48,-38.15 6.3,-11.7 15.67,-21.23 28.04,-28.56 12.32,-7.32 26.57,-10.95 42.64,-10.95 3.4,0 6.86,0.11 10.27,0.4 3.46,0.28 7.83,1.02 13.11,2.27 5.34,1.19 10.28,2.89 14.76,4.99 4.54,2.1 9.26,5.17 14.14,9.14 4.88,3.97 9.02,8.63 12.43,13.97 3.46,5.33 6.3,12.14 8.52,20.38 2.21,8.28 3.29,17.42 3.29,27.53l-101.16 0 0 -15.33 56.88 0c-0.57,-32.02 -11.92,-48.02 -34.06,-48.02 -23.84,0 -35.77,21.11 -35.77,63.35 0,18.96 3.92,32.98 11.81,42.12 7.89,9.14 18.11,13.74 30.77,13.74 10.05,0 19.3,-2.1 27.7,-6.25 8.46,-4.14 14.54,-9.42 18.28,-15.89l11.92 8.51c-5.16,8.75 -13.17,15.79 -23.89,21.07 -10.73,5.27 -23.17,7.89 -37.36,7.89 -11.75,0 -22.42,-1.37 -32.07,-4.09 -9.65,-2.73 -18.23,-6.87 -25.78,-12.49 -7.55,-5.56 -13.39,-13.11 -17.65,-22.59 -4.2,-9.48 -6.3,-20.5 -6.3,-33.04z"/>
   <path id="_4_7" class="fil3" d="M2529.09 4205.43l0 -143.06 40.88 0 0 10.17c12.66,-9.03 25.43,-13.57 38.43,-13.57 12.94,0 23.45,3.97 31.39,11.92l-20.43 25.66c-3.41,-3.01 -7.72,-5.51 -12.78,-7.44 -5.11,-1.93 -9.93,-2.89 -14.47,-2.89 -7.55,0 -14.93,1.13 -22.14,3.46l0 115.75 -40.88 0z"/>
   <path id="_5_8" class="fil3" d="M2616.01 4171.37c0,-9.08 2.04,-18.56 6.07,-28.44 4.03,-9.88 9.99,-19.47 17.77,-28.78 7.84,-9.31 16.92,-17.89 27.31,-25.66 10.39,-7.84 22.48,-14.37 36.44,-19.64 13.91,-5.23 28.33,-8.58 43.32,-9.88 4.88,24.46 11.52,49.95 20.04,76.46 8.45,26.52 17.82,49.85 27.98,70l-44.39 0c-7.78,-14.76 -15.56,-34.06 -23.45,-57.96 -7.89,-23.84 -13.73,-45.36 -17.59,-64.55 -14.65,6.42 -26.8,17.2 -36.45,32.31 -9.65,15.15 -14.48,29.91 -14.48,44.33 0,7.95 2.33,14.19 6.93,18.68 4.6,4.48 11.35,6.75 20.32,6.75 12.44,0 24.98,-3.97 37.64,-11.97l4.94 13.62c-8.97,7.32 -19.53,12.89 -31.73,16.63 -12.21,3.69 -24.64,5.57 -37.24,5.57 -12.44,0 -22.77,-3.24 -31.06,-9.77 -8.23,-6.47 -12.37,-15.72 -12.37,-27.7z"/>
  </g>
 </g>
</svg>
