<?xml version="1.0" encoding="UTF-8"?>
<!DOCTYPE svg PUBLIC "-//W3C//DTD SVG 1.1//EN" "http://www.w3.org/Graphics/SVG/1.1/DTD/svg11.dtd">
<!-- Creator: CorelDRAW 2021 (64-Bit) -->
<svg xmlns="http://www.w3.org/2000/svg" xml:space="preserve" width="50.8mm" height="49.3888mm" version="1.1" style="shape-rendering:geometricPrecision; text-rendering:geometricPrecision; image-rendering:optimizeQuality; fill-rule:evenodd; clip-rule:evenodd"
viewBox="0 0 5080 4938.88"
 xmlns:xlink="http://www.w3.org/1999/xlink"
 xmlns:xodm="http://www.corel.com/coreldraw/odm/2003">
 <defs>
  <style type="text/css">
   <![CDATA[
    .str0 {stroke:black;stroke-width:21.08;stroke-miterlimit:22.9256}
    .str1 {stroke:black;stroke-width:7.62;stroke-miterlimit:22.9256}
    .fil2 {fill:none;fill-rule:nonzero}
    .fil1 {fill:black;fill-rule:nonzero}
    .fil0 {fill:#E6E6E6;fill-rule:nonzero}
   ]]>
  </style>
 </defs>
 <g id="Layer_x0020_1">
  <metadata id="CorelCorpID_0Corel-Layer"/>
  <g id="_2139234900672">
   <path class="fil0 str0" d="M1940.02 76.49c-80.22,38.75 -118.06,58.44 -146.12,67.78 -28.06,9.37 -143.22,90.03 -171.27,90.03 -28.06,0 -141.73,110.48 -272.68,166.59 -130.93,56.13 -356.12,55.22 -459.01,214.25 -102.86,158.97 -355.75,738.4 -411.87,869.33 -56.11,130.93 -177.88,364.53 -177.88,364.53l-46.86 196.3c0,0 289.85,177.62 364.67,205.71 74.8,28.07 428.57,149.56 428.57,149.56l40.44 -158.99 0 -37.43c0,0 78.78,-177.69 106.84,-215.08 28.06,-37.43 39.41,243.14 76.82,411.5 37.4,168.32 75.81,523.76 75.81,579.84 0,56.13 -93.01,738.86 -83.68,794.94 9.37,56.13 -93.25,794.98 -74.57,916.54 18.72,121.6 645.46,149.68 1028.89,159.04 383.47,9.29 1103.65,8.88 1374.93,-37.64 271.2,-46.56 336.71,-55.9 336.71,-55.9 0,0 -105.57,-857.82 -161.68,-1035.52 -56.11,-177.68 -51.57,-364.64 -60.92,-476.88 -9.38,-112.22 -43.45,-816.53 -43.45,-923.99l0 -229.07 81.59 56.58 59.53 167.88c0,0 290.72,-56.09 449.72,-112.24 158.97,-56.09 346.8,-149.63 346.8,-149.63l0 -187.3 -78.58 -187.08c0,0 -109.43,-346.03 -156.15,-458.25 -46.83,-112.24 -185.7,-523.72 -260.52,-561.13 -74.84,-37.43 -53.47,-221.56 -608.54,-404.5 -353.38,-116.46 -472.99,-266.54 -465.95,-180.02 10.6,130.64 -11.56,108.91 -166.97,200.32 -158.97,93.49 -250.73,97.64 -627.7,53.16 -393.81,-46.43 -216.67,-292.13 -296.88,-253.38l-0.04 0.15z"/>
   <g>
    <path class="fil0" d="M1264.25 1914.25c-1.81,-51.69 -0.2,-103.47 0.07,-155.09 1.57,-51.57 2.26,-103.2 -1.94,-154.46 -4.23,-51.17 -13.08,-102.22 -31.7,-150 -18.43,-47.73 -49.85,-89.11 -82.44,-128.95 -32.67,-39.79 -65.16,-81.36 -87.72,-128.4 -23.38,-46.49 -41.93,-95.04 -58.42,-144.13 -16.49,-49.11 -30.76,-98.86 -44.75,-148.62 -12.65,-50.14 -24.87,-100.33 -39.13,-150.03 16.91,48.86 31.82,98.42 47.16,147.78 13.97,49.71 28.21,99.35 44.62,148.22 16.39,48.84 34.85,97.12 57.93,142.98 22.3,46.47 54.01,87.02 86.8,126.97 32.61,39.89 64.74,82.02 83.73,131.24 18.98,48.69 27.97,100.61 32.23,152.27 4.23,51.79 3.51,103.7 1.98,155.4 -2.82,51.51 -6.66,103.02 -8.35,154.76l-0.07 0.06z"/>
    <path id="_1" class="fil1" d="M1254.32 1758.86l20 0.6 0 -0.25 -0.03 4.86 -0.04 4.85 -0.04 4.84 -0.04 4.86 -0.06 4.86 -0.05 4.84 -0.06 4.86 -0.06 4.84 -0.06 4.85 -0.06 4.84 -0.06 4.85 -0.06 4.84 -0.05 4.84 -0.06 4.84 -0.04 4.84 -0.05 4.84 -0.03 4.83 -0.03 4.84 -0.02 4.83 -0.01 4.83 -0.01 4.83 0.01 4.82 0.02 4.83 0.03 4.83 0.04 4.82 0.06 4.82 0.07 4.8 0.09 4.81 0.11 4.82 0.12 4.82 0.14 4.8 0.15 4.81 -19.98 0.7 -0.17 -4.89 -0.14 -4.88 -0.12 -4.88 -0.11 -4.88 -0.09 -4.89 -0.07 -4.88 -0.06 -4.88 -0.04 -4.88 -0.03 -4.87 -0.02 -4.87 -0.01 -4.88 0.01 -4.87 0.01 -4.85 0.02 -4.87 0.03 -4.86 0.03 -4.87 0.05 -4.86 0.04 -4.86 0.06 -4.86 0.05 -4.84 0.06 -4.86 0.06 -4.85 0.06 -4.84 0.06 -4.85 0.06 -4.84 0.06 -4.84 0.05 -4.84 0.06 -4.84 0.04 -4.82 0.04 -4.84 0.04 -4.83 0.03 -4.82 0 -0.25zm0 0.25l0 -0.3 0 0.05 0 0.25zm-1.91 -153.59l19.94 -1.64 0 0 0.38 4.87 0.36 4.86 0.33 4.88 0.29 4.86 0.29 4.86 0.24 4.87 0.23 4.86 0.2 4.89 0.17 4.86 0.17 4.86 0.13 4.88 0.11 4.85 0.1 4.87 0.07 4.88 0.06 4.86 0.03 4.87 0.02 4.85 0.01 4.87 -0.01 4.87 -0.03 4.86 -0.04 4.85 -0.05 4.86 -0.06 4.86 -0.08 4.88 -0.09 4.85 -0.1 4.85 -0.1 4.85 -0.12 4.86 -0.12 4.85 -0.14 4.86 -0.14 4.84 -0.14 4.84 -20 -0.6 0.14 -4.82 0.14 -4.84 0.14 -4.82 0.12 -4.81 0.12 -4.82 0.1 -4.81 0.1 -4.83 0.09 -4.81 0.08 -4.8 0.06 -4.8 0.05 -4.82 0.04 -4.81 0.03 -4.8 0.01 -4.79 -0.01 -4.81 -0.02 -4.81 -0.03 -4.79 -0.06 -4.78 -0.07 -4.78 -0.1 -4.79 -0.11 -4.79 -0.13 -4.78 -0.15 -4.78 -0.17 -4.78 -0.2 -4.75 -0.23 -4.78 -0.24 -4.77 -0.27 -4.76 -0.29 -4.76 -0.33 -4.74 -0.34 -4.76 -0.38 -4.75 0 0zm-31.06 -147.22l18.66 -7.2 -0.01 -0.03 1.76 4.6 1.71 4.63 1.64 4.64 1.58 4.64 1.54 4.67 1.48 4.69 1.43 4.71 1.36 4.7 1.33 4.72 1.27 4.75 1.23 4.73 1.17 4.78 1.12 4.76 1.09 4.79 1.02 4.77 1 4.79 0.95 4.83 0.9 4.8 0.86 4.82 0.82 4.82 0.79 4.83 0.74 4.83 0.71 4.84 0.67 4.84 0.64 4.85 0.6 4.86 0.57 4.84 0.53 4.86 0.5 4.85 0.48 4.86 0.44 4.85 0.42 4.86 -19.94 1.64 -0.4 -4.74 -0.44 -4.73 -0.46 -4.74 -0.48 -4.73 -0.53 -4.72 -0.55 -4.72 -0.58 -4.7 -0.62 -4.71 -0.65 -4.7 -0.69 -4.68 -0.72 -4.69 -0.75 -4.67 -0.8 -4.66 -0.84 -4.66 -0.86 -4.64 -0.91 -4.61 -0.96 -4.63 -1 -4.61 -1.03 -4.59 -1.08 -4.58 -1.13 -4.56 -1.17 -4.55 -1.21 -4.53 -1.27 -4.52 -1.32 -4.52 -1.35 -4.47 -1.42 -4.47 -1.46 -4.45 -1.52 -4.44 -1.56 -4.4 -1.61 -4.39 -1.68 -4.38 -0.01 -0.03zm0.01 0.03l-0.01 -0.03 0.18 0.47 -0.17 -0.44zm-80.85 -126.23l15.46 -12.7 0.01 0.02 3.07 3.76 3.05 3.77 3.07 3.79 3.03 3.8 3.04 3.82 3.01 3.83 3 3.86 2.98 3.87 2.96 3.9 2.93 3.92 2.89 3.93 2.89 3.95 2.85 4 2.81 4 2.78 4.03 2.74 4.06 2.71 4.09 2.66 4.12 2.62 4.14 2.57 4.18 2.52 4.2 2.47 4.26 2.42 4.26 2.36 4.32 2.3 4.34 2.24 4.38 2.18 4.42 2.12 4.45 2.04 4.49 1.99 4.54 1.9 4.58 1.83 4.62 -18.66 7.2 -1.71 -4.3 -1.76 -4.26 -1.85 -4.22 -1.92 -4.21 -1.98 -4.19 -2.04 -4.14 -2.12 -4.12 -2.16 -4.1 -2.24 -4.06 -2.28 -4.06 -2.35 -4.02 -2.4 -4 -2.45 -3.98 -2.5 -3.96 -2.54 -3.94 -2.59 -3.91 -2.64 -3.9 -2.68 -3.89 -2.71 -3.88 -2.75 -3.84 -2.79 -3.83 -2.83 -3.83 -2.85 -3.8 -2.88 -3.8 -2.9 -3.77 -2.94 -3.78 -2.95 -3.75 -2.98 -3.76 -2.99 -3.74 -3.01 -3.73 -3.03 -3.73 -3.03 -3.72 0.01 0.02zm15.46 -12.7l0.01 0.02 -1.73 -2.11 1.72 2.09zm-104.38 -117.56l17.86 -8.98 0.09 0.17 2.08 4.27 2.14 4.25 2.2 4.21 2.25 4.2 2.31 4.17 2.34 4.15 2.4 4.11 2.45 4.1 2.49 4.07 2.53 4.05 2.58 4.03 2.62 4.02 2.65 3.98 2.69 3.97 2.73 3.95 2.76 3.94 2.78 3.91 2.82 3.89 2.85 3.89 2.88 3.86 2.89 3.86 2.92 3.82 2.94 3.82 2.96 3.81 2.98 3.78 3 3.8 3.01 3.76 3.02 3.77 3.02 3.75 3.04 3.73 3.05 3.73 3.05 3.72 -15.46 12.7 -3.07 -3.76 -3.07 -3.75 -3.08 -3.79 -3.06 -3.79 -3.06 -3.81 -3.05 -3.82 -3.04 -3.84 -3.04 -3.86 -3.02 -3.89 -3 -3.9 -2.98 -3.92 -2.97 -3.94 -2.94 -3.96 -2.93 -3.99 -2.9 -4.01 -2.88 -4.03 -2.84 -4.06 -2.81 -4.07 -2.79 -4.11 -2.75 -4.14 -2.72 -4.16 -2.68 -4.19 -2.65 -4.23 -2.59 -4.25 -2.55 -4.28 -2.52 -4.31 -2.46 -4.35 -2.41 -4.37 -2.37 -4.4 -2.32 -4.45 -2.26 -4.49 -2.2 -4.51 0.09 0.17zm17.86 -8.98l0.09 0.17 0.09 0.19 -0.18 -0.36zm-76.83 -136.46l18.96 -6.36 0 0 1.54 4.57 1.56 4.58 1.56 4.56 1.59 4.56 1.6 4.57 1.6 4.53 1.63 4.54 1.64 4.55 1.65 4.54 1.67 4.51 1.69 4.52 1.71 4.52 1.71 4.5 1.75 4.49 1.75 4.49 1.79 4.48 1.79 4.47 1.82 4.47 1.84 4.44 1.86 4.45 1.88 4.43 1.9 4.42 1.92 4.41 1.95 4.41 1.97 4.39 2 4.38 2.02 4.37 2.04 4.35 2.07 4.35 2.1 4.34 2.12 4.32 2.15 4.31 -17.86 8.98 -2.21 -4.41 -2.18 -4.44 -2.14 -4.44 -2.13 -4.45 -2.1 -4.47 -2.06 -4.47 -2.04 -4.48 -2.01 -4.49 -1.99 -4.49 -1.98 -4.51 -1.94 -4.52 -1.92 -4.53 -1.9 -4.53 -1.86 -4.54 -1.86 -4.55 -1.83 -4.55 -1.81 -4.56 -1.79 -4.57 -1.77 -4.57 -1.75 -4.58 -1.73 -4.58 -1.71 -4.58 -1.71 -4.61 -1.67 -4.6 -1.66 -4.59 -1.65 -4.6 -1.64 -4.63 -1.6 -4.61 -1.61 -4.62 -1.58 -4.62 -1.58 -4.62 -1.56 -4.63 0 0zm-44.97 -149.35l19.4 -4.9 -0.07 -0.26 1.3 4.66 1.32 4.67 1.31 4.66 1.32 4.65 1.33 4.66 1.32 4.66 1.32 4.65 1.34 4.66 1.33 4.65 1.35 4.64 1.34 4.65 1.35 4.65 1.36 4.64 1.36 4.63 1.37 4.64 1.38 4.64 1.37 4.64 1.39 4.62 1.4 4.63 1.41 4.62 1.41 4.62 1.42 4.63 1.44 4.61 1.44 4.61 1.45 4.61 1.47 4.6 1.47 4.61 1.48 4.59 1.5 4.6 1.5 4.58 1.52 4.58 1.53 4.59 -18.96 6.36 -1.55 -4.63 -1.54 -4.64 -1.52 -4.64 -1.5 -4.64 -1.5 -4.63 -1.49 -4.65 -1.47 -4.64 -1.47 -4.65 -1.46 -4.65 -1.44 -4.67 -1.44 -4.65 -1.43 -4.66 -1.41 -4.66 -1.4 -4.65 -1.41 -4.68 -1.39 -4.66 -1.38 -4.66 -1.37 -4.66 -1.38 -4.67 -1.36 -4.68 -1.35 -4.65 -1.36 -4.67 -1.35 -4.68 -1.33 -4.67 -1.34 -4.66 -1.34 -4.69 -1.32 -4.66 -1.33 -4.66 -1.32 -4.69 -1.31 -4.66 -1.32 -4.67 -1.32 -4.66 -0.07 -0.26zm0.07 0.26l-0.07 -0.26 0.03 0.11 0.04 0.15zm-20.05 -156.01l-18.9 6.54 19.06 -6.03 1.34 4.69 1.32 4.68 1.32 4.69 1.31 4.7 1.28 4.69 1.29 4.68 1.27 4.7 1.27 4.7 1.25 4.69 1.26 4.7 1.23 4.7 1.24 4.7 1.22 4.7 1.22 4.7 1.21 4.7 1.22 4.7 1.2 4.7 1.2 4.71 1.19 4.7 1.19 4.71 1.2 4.71 1.18 4.7 1.18 4.69 1.18 4.7 1.18 4.7 1.18 4.71 1.18 4.71 1.18 4.69 1.18 4.7 1.18 4.7 1.19 4.7 1.18 4.69 -19.4 4.9 -1.18 -4.71 -1.19 -4.7 -1.18 -4.7 -1.18 -4.7 -1.18 -4.71 -1.18 -4.71 -1.18 -4.69 -1.18 -4.7 -1.18 -4.7 -1.18 -4.69 -1.18 -4.7 -1.18 -4.69 -1.19 -4.69 -1.19 -4.68 -1.2 -4.69 -1.2 -4.68 -1.2 -4.68 -1.21 -4.68 -1.22 -4.68 -1.22 -4.68 -1.22 -4.68 -1.23 -4.66 -1.24 -4.66 -1.25 -4.67 -1.25 -4.66 -1.27 -4.66 -1.27 -4.66 -1.28 -4.65 -1.29 -4.64 -1.3 -4.65 -1.32 -4.64 -1.32 -4.63 19.06 -6.03zm47.34 148.34l-19.26 5.42 0.08 0.26 -1.44 -4.64 -1.43 -4.63 -1.44 -4.63 -1.43 -4.64 -1.43 -4.63 -1.43 -4.63 -1.43 -4.63 -1.43 -4.62 -1.44 -4.63 -1.43 -4.64 -1.44 -4.63 -1.43 -4.62 -1.44 -4.62 -1.44 -4.62 -1.45 -4.62 -1.45 -4.62 -1.46 -4.61 -1.45 -4.61 -1.47 -4.62 -1.47 -4.6 -1.47 -4.6 -1.49 -4.61 -1.48 -4.6 -1.5 -4.58 -1.5 -4.58 -1.51 -4.6 -1.53 -4.57 -1.53 -4.59 -1.53 -4.57 -1.55 -4.56 -1.57 -4.57 -1.57 -4.56 18.9 -6.54 1.59 4.6 1.57 4.61 1.57 4.62 1.55 4.61 1.55 4.61 1.53 4.63 1.53 4.62 1.52 4.62 1.5 4.64 1.5 4.62 1.49 4.63 1.49 4.64 1.47 4.62 1.47 4.64 1.47 4.63 1.46 4.63 1.45 4.64 1.45 4.64 1.44 4.62 1.46 4.64 1.43 4.64 1.44 4.63 1.43 4.64 1.44 4.63 1.43 4.64 1.43 4.63 1.43 4.63 1.43 4.63 1.43 4.62 1.44 4.63 1.43 4.63 1.44 4.62 0.08 0.26zm-0.08 -0.26l0.08 0.26 -0.01 -0.03 -0.07 -0.23zm44.55 148.01l-18.96 6.36 0 0 -1.54 -4.6 -1.53 -4.62 -1.51 -4.61 -1.51 -4.63 -1.49 -4.63 -1.48 -4.62 -1.47 -4.62 -1.46 -4.65 -1.45 -4.62 -1.44 -4.64 -1.43 -4.64 -1.43 -4.65 -1.4 -4.65 -1.41 -4.65 -1.39 -4.64 -1.39 -4.66 -1.38 -4.65 -1.37 -4.65 -1.37 -4.66 -1.36 -4.65 -1.35 -4.66 -1.36 -4.66 -1.34 -4.67 -1.34 -4.66 -1.33 -4.66 -1.33 -4.66 -1.32 -4.67 -1.32 -4.65 -1.32 -4.66 -1.32 -4.67 -1.32 -4.67 -1.31 -4.66 19.26 -5.42 1.31 4.66 1.3 4.65 1.32 4.65 1.32 4.66 1.32 4.65 1.32 4.65 1.33 4.64 1.33 4.66 1.32 4.64 1.34 4.63 1.34 4.64 1.35 4.64 1.36 4.63 1.35 4.64 1.37 4.63 1.36 4.61 1.39 4.62 1.39 4.62 1.39 4.63 1.4 4.59 1.41 4.61 1.41 4.6 1.44 4.6 1.43 4.6 1.44 4.59 1.47 4.58 1.46 4.6 1.47 4.57 1.49 4.57 1.51 4.57 1.51 4.56 1.52 4.56 0 0zm57.47 141.83l-18.04 8.66 0.09 0.17 -2.18 -4.38 -2.15 -4.37 -2.12 -4.38 -2.1 -4.4 -2.07 -4.41 -2.05 -4.43 -2.02 -4.43 -2 -4.45 -1.97 -4.46 -1.94 -4.46 -1.94 -4.48 -1.9 -4.49 -1.88 -4.49 -1.85 -4.5 -1.84 -4.51 -1.82 -4.52 -1.79 -4.52 -1.79 -4.54 -1.76 -4.56 -1.73 -4.54 -1.72 -4.55 -1.71 -4.56 -1.68 -4.57 -1.67 -4.56 -1.65 -4.59 -1.64 -4.58 -1.62 -4.59 -1.61 -4.59 -1.58 -4.59 -1.58 -4.59 -1.57 -4.6 -1.55 -4.61 18.96 -6.36 1.53 4.55 1.55 4.54 1.56 4.55 1.58 4.55 1.57 4.53 1.6 4.51 1.62 4.52 1.63 4.51 1.65 4.5 1.66 4.51 1.67 4.48 1.7 4.49 1.71 4.48 1.72 4.46 1.75 4.44 1.77 4.46 1.78 4.44 1.8 4.41 1.83 4.42 1.84 4.41 1.86 4.39 1.88 4.38 1.92 4.38 1.93 4.36 1.94 4.35 1.98 4.33 1.99 4.31 2.03 4.31 2.04 4.3 2.08 4.28 2.09 4.27 2.12 4.24 0.09 0.17zm-0.09 -0.17l0.09 0.17 0.09 0.19 -0.18 -0.36zm85.61 125.14l-15.48 12.66 0.01 0.01 -3.08 -3.76 -3.07 -3.76 -3.08 -3.78 -3.06 -3.78 -3.04 -3.8 -3.05 -3.81 -3.02 -3.82 -3.01 -3.84 -2.99 -3.84 -2.98 -3.86 -2.95 -3.89 -2.93 -3.88 -2.92 -3.91 -2.89 -3.94 -2.87 -3.96 -2.82 -3.98 -2.81 -3.99 -2.79 -4.03 -2.74 -4.05 -2.7 -4.06 -2.68 -4.11 -2.63 -4.13 -2.6 -4.15 -2.56 -4.18 -2.52 -4.22 -2.47 -4.25 -2.43 -4.28 -2.37 -4.31 -2.34 -4.35 -2.28 -4.39 -2.23 -4.42 -2.18 -4.45 18.04 -8.66 2.06 4.23 2.11 4.2 2.16 4.15 2.22 4.13 2.27 4.11 2.31 4.08 2.37 4.05 2.4 4.04 2.44 4 2.5 3.99 2.53 3.97 2.58 3.93 2.62 3.94 2.64 3.91 2.67 3.87 2.73 3.89 2.76 3.86 2.77 3.84 2.81 3.82 2.84 3.81 2.87 3.82 2.89 3.79 2.92 3.78 2.93 3.78 2.95 3.76 2.98 3.76 2.99 3.75 3.02 3.74 3.02 3.74 3.04 3.74 3.05 3.74 3.06 3.74 0.01 0.01zm-0.01 -0.01l0.01 0.01 0.45 0.55 -0.46 -0.56zm85.32 133.95l-18.64 7.26 -0.01 -0.03 -1.76 -4.43 -1.82 -4.4 -1.9 -4.36 -1.97 -4.33 -2.04 -4.3 -2.1 -4.26 -2.17 -4.23 -2.23 -4.21 -2.28 -4.17 -2.34 -4.14 -2.4 -4.13 -2.45 -4.09 -2.5 -4.06 -2.55 -4.05 -2.59 -4.01 -2.65 -4 -2.67 -3.96 -2.73 -3.95 -2.75 -3.93 -2.79 -3.9 -2.83 -3.89 -2.87 -3.87 -2.88 -3.85 -2.91 -3.84 -2.93 -3.81 -2.96 -3.8 -2.98 -3.79 -2.99 -3.78 -3.01 -3.76 -3.02 -3.74 -3.03 -3.74 -3.04 -3.73 15.48 -12.66 3.08 3.77 3.07 3.78 3.06 3.8 3.05 3.82 3.05 3.84 3.04 3.87 3.02 3.88 3.01 3.91 2.99 3.94 2.96 3.95 2.93 3.99 2.93 4.01 2.89 4.04 2.85 4.07 2.83 4.09 2.79 4.14 2.75 4.16 2.71 4.19 2.67 4.23 2.62 4.26 2.57 4.31 2.52 4.33 2.48 4.38 2.42 4.41 2.35 4.45 2.31 4.49 2.22 4.54 2.18 4.58 2.09 4.61 2.04 4.66 1.96 4.72 1.88 4.75 -0.01 -0.03zm-18.64 7.26l-0.01 -0.03 0.16 0.42 -0.15 -0.39zm51.52 147.83l-19.94 1.62 0 0.01 -0.4 -4.78 -0.45 -4.78 -0.46 -4.79 -0.49 -4.79 -0.53 -4.77 -0.56 -4.77 -0.59 -4.78 -0.62 -4.77 -0.66 -4.75 -0.7 -4.75 -0.73 -4.74 -0.77 -4.74 -0.81 -4.75 -0.85 -4.72 -0.88 -4.71 -0.93 -4.7 -0.97 -4.7 -1 -4.67 -1.06 -4.67 -1.1 -4.67 -1.15 -4.63 -1.19 -4.62 -1.24 -4.62 -1.3 -4.61 -1.33 -4.58 -1.38 -4.56 -1.44 -4.55 -1.49 -4.54 -1.54 -4.51 -1.6 -4.5 -1.65 -4.49 -1.71 -4.45 18.64 -7.26 1.79 4.69 1.73 4.71 1.68 4.72 1.62 4.73 1.57 4.76 1.5 4.77 1.46 4.78 1.39 4.8 1.34 4.79 1.3 4.82 1.25 4.82 1.19 4.85 1.14 4.85 1.1 4.85 1.06 4.87 0.99 4.86 0.97 4.88 0.92 4.89 0.87 4.88 0.83 4.89 0.81 4.9 0.75 4.9 0.72 4.91 0.68 4.91 0.64 4.91 0.61 4.9 0.58 4.91 0.53 4.91 0.51 4.91 0.48 4.89 0.45 4.92 0.42 4.9 0 0.01zm2 156.76l-19.98 -1.1 -0.01 0.25 0.14 -4.84 0.14 -4.84 0.13 -4.83 0.12 -4.83 0.11 -4.84 0.11 -4.83 0.09 -4.83 0.09 -4.85 0.08 -4.81 0.06 -4.83 0.05 -4.84 0.04 -4.83 0.03 -4.83 0.01 -4.82 -0.01 -4.83 -0.02 -4.83 -0.04 -4.83 -0.05 -4.81 -0.08 -4.82 -0.09 -4.82 -0.11 -4.81 -0.14 -4.82 -0.14 -4.82 -0.18 -4.81 -0.2 -4.81 -0.23 -4.82 -0.24 -4.81 -0.27 -4.78 -0.3 -4.82 -0.32 -4.8 -0.35 -4.79 -0.38 -4.81 19.94 -1.62 0.38 4.91 0.37 4.91 0.32 4.92 0.3 4.9 0.29 4.92 0.24 4.91 0.23 4.9 0.2 4.91 0.18 4.91 0.16 4.9 0.14 4.9 0.11 4.91 0.09 4.9 0.08 4.9 0.05 4.89 0.04 4.89 0.02 4.89 0.01 4.89 -0.01 4.9 -0.03 4.89 -0.04 4.87 -0.05 4.88 -0.06 4.89 -0.08 4.89 -0.09 4.87 -0.09 4.87 -0.11 4.87 -0.11 4.86 -0.12 4.87 -0.13 4.87 -0.14 4.86 -0.14 4.86 -0.01 0.25zm0.01 -0.25l0 0.15 -0.01 0.1 0.01 -0.25zm-11.84 162.05l-13.02 -15.18 -3.48 7.26 0.16 -4.87 0.18 -4.88 0.19 -4.87 0.2 -4.86 0.21 -4.87 0.22 -4.85 0.22 -4.86 0.24 -4.89 0.25 -4.85 0.25 -4.85 0.26 -4.84 0.26 -4.85 0.28 -4.86 0.28 -4.85 0.28 -4.83 0.28 -4.85 0.29 -4.84 0.29 -4.83 0.29 -4.84 0.29 -4.84 0.3 -4.83 0.29 -4.83 0.3 -4.83 0.29 -4.83 0.3 -4.83 0.29 -4.82 0.29 -4.82 0.28 -4.82 0.28 -4.83 0.28 -4.82 0.27 -4.82 0.26 -4.82 19.98 1.1 -0.28 4.84 -0.27 4.84 -0.28 4.84 -0.28 4.83 -0.28 4.84 -0.29 4.84 -0.29 4.84 -0.3 4.83 -0.29 4.83 -0.3 4.83 -0.29 4.83 -0.3 4.83 -0.29 4.82 -0.29 4.84 -0.29 4.83 -0.29 4.82 -0.28 4.83 -0.28 4.83 -0.28 4.83 -0.26 4.82 -0.26 4.83 -0.26 4.82 -0.25 4.83 -0.25 4.83 -0.24 4.81 -0.22 4.82 -0.22 4.83 -0.21 4.83 -0.2 4.82 -0.19 4.83 -0.18 4.82 -0.16 4.83 -3.48 7.26zm3.48 -7.26l-0.14 4.4 -3.34 2.86 3.48 -7.26zm-16.57 -7.86l0.07 -0.06 13.02 15.18 -0.07 0.06 -16.5 -7.24 3.48 -7.94zm13.02 15.18l-15.77 13.52 -0.73 -20.76 16.5 7.24z"/>
   </g>
   <g>
    <path class="fil0" d="M4098.15 773.17c-31.58,40.47 -60.08,83.07 -85.17,127.56 -26.64,43.54 -50.16,88.97 -71.28,135.5 -42.2,93.13 -74.77,190.45 -102.49,288.98 -27.68,98.6 -50.44,198.58 -72.08,298.8l-32.13 150.49c-12.58,49.77 -24.98,99.6 -39,148.99 9.64,-50.43 19.22,-100.8 28.15,-151.33l32.12 -150.49c21.66,-100.3 44.47,-200.51 72.24,-299.46 27.83,-98.89 60.55,-196.73 103.09,-290.57 21.25,-46.89 45.01,-92.7 71.86,-136.73 28.35,-42.92 59.53,-84.16 94.66,-121.66l0.03 -0.08z"/>
    <path id="_1_0" class="fil1" d="M4021.51 905.95l-17.06 -10.44 -0.18 0.31 2.38 -4.21 2.41 -4.2 2.43 -4.18 2.44 -4.16 2.47 -4.18 2.48 -4.14 2.51 -4.14 2.52 -4.13 2.55 -4.11 2.56 -4.11 2.59 -4.09 2.6 -4.07 2.61 -4.07 2.66 -4.07 2.66 -4.04 2.67 -4.03 2.7 -4.03 2.73 -4.01 2.73 -3.99 2.76 -3.99 2.78 -3.97 2.79 -3.95 2.81 -3.95 2.84 -3.94 2.84 -3.92 2.87 -3.91 2.89 -3.9 2.91 -3.89 2.92 -3.87 2.94 -3.87 2.97 -3.85 2.98 -3.83 15.76 12.3 -2.92 3.77 -2.91 3.77 -2.88 3.79 -2.88 3.81 -2.85 3.81 -2.83 3.82 -2.81 3.83 -2.8 3.86 -2.78 3.86 -2.75 3.87 -2.75 3.89 -2.72 3.89 -2.7 3.91 -2.69 3.93 -2.67 3.93 -2.64 3.93 -2.63 3.97 -2.62 3.96 -2.58 3.97 -2.57 3.99 -2.56 4.01 -2.53 4.01 -2.52 4.03 -2.49 4.03 -2.48 4.05 -2.45 4.06 -2.44 4.06 -2.41 4.08 -2.4 4.1 -2.39 4.1 -2.35 4.1 -2.34 4.13 -0.18 0.31zm0.18 -0.31l-0.11 0.2 -0.07 0.11 0.18 -0.31zm-70.88 134.72l-18.22 -8.26 0 0 2.01 -4.39 2.01 -4.38 2.02 -4.38 2.05 -4.38 2.07 -4.36 2.07 -4.34 2.08 -4.35 2.11 -4.35 2.13 -4.33 2.13 -4.33 2.15 -4.31 2.16 -4.32 2.19 -4.3 2.2 -4.29 2.21 -4.3 2.23 -4.27 2.25 -4.28 2.27 -4.25 2.28 -4.25 2.29 -4.24 2.32 -4.25 2.34 -4.23 2.34 -4.2 2.37 -4.21 2.39 -4.2 2.39 -4.18 2.42 -4.18 2.44 -4.18 2.47 -4.16 2.47 -4.13 2.49 -4.14 2.51 -4.13 17.06 10.44 -2.47 4.05 -2.45 4.06 -2.43 4.07 -2.41 4.08 -2.38 4.08 -2.38 4.12 -2.37 4.12 -2.35 4.12 -2.31 4.13 -2.32 4.16 -2.3 4.15 -2.26 4.15 -2.27 4.18 -2.24 4.19 -2.23 4.19 -2.21 4.2 -2.19 4.21 -2.19 4.22 -2.16 4.23 -2.15 4.24 -2.14 4.24 -2.11 4.25 -2.11 4.27 -2.09 4.27 -2.07 4.27 -2.06 4.29 -2.05 4.3 -2.03 4.3 -2.01 4.3 -2 4.32 -1.99 4.32 -1.97 4.33 0 0zm-101.97 287.55l-19.26 -5.4 0 -0.01 2.62 -9.26 2.66 -9.26 2.68 -9.25 2.71 -9.24 2.75 -9.24 2.78 -9.22 2.81 -9.21 2.84 -9.21 2.89 -9.19 2.92 -9.19 2.96 -9.17 2.99 -9.16 3.05 -9.14 3.07 -9.14 3.12 -9.12 3.16 -9.11 3.2 -9.08 3.24 -9.08 3.3 -9.06 3.34 -9.04 3.37 -9.03 3.43 -9 3.48 -9 3.53 -8.97 3.59 -8.95 3.63 -8.93 3.68 -8.91 3.73 -8.9 3.79 -8.87 3.84 -8.84 3.9 -8.83 3.95 -8.8 18.22 8.26 -3.91 8.68 -3.84 8.71 -3.8 8.74 -3.73 8.75 -3.69 8.78 -3.64 8.81 -3.59 8.83 -3.53 8.85 -3.49 8.87 -3.44 8.88 -3.39 8.9 -3.35 8.93 -3.3 8.96 -3.26 8.96 -3.22 8.98 -3.16 9 -3.14 9.03 -3.08 9.02 -3.05 9.06 -3.01 9.06 -2.97 9.08 -2.94 9.09 -2.88 9.11 -2.87 9.13 -2.82 9.11 -2.79 9.15 -2.76 9.16 -2.73 9.16 -2.69 9.18 -2.66 9.19 -2.64 9.2 -2.6 9.2 0 -0.01zm-71.93 298.19l-19.56 -4.18 0.01 -0.02 2.03 -9.4 2.04 -9.41 2.05 -9.39 2.05 -9.4 2.08 -9.41 2.08 -9.38 2.08 -9.39 2.1 -9.4 2.12 -9.39 2.12 -9.39 2.14 -9.38 2.15 -9.38 2.17 -9.38 2.18 -9.38 2.21 -9.37 2.22 -9.37 2.24 -9.35 2.25 -9.36 2.28 -9.35 2.29 -9.35 2.31 -9.36 2.34 -9.33 2.36 -9.33 2.37 -9.33 2.41 -9.33 2.43 -9.32 2.45 -9.3 2.48 -9.31 2.51 -9.3 2.54 -9.3 2.55 -9.27 2.59 -9.28 19.26 5.4 -2.57 9.22 -2.55 9.23 -2.52 9.24 -2.49 9.24 -2.46 9.25 -2.45 9.26 -2.41 9.26 -2.39 9.27 -2.37 9.29 -2.34 9.29 -2.34 9.29 -2.29 9.3 -2.29 9.31 -2.26 9.31 -2.25 9.32 -2.22 9.33 -2.22 9.33 -2.19 9.33 -2.18 9.34 -2.15 9.34 -2.15 9.36 -2.14 9.36 -2.12 9.35 -2.1 9.37 -2.1 9.36 -2.08 9.37 -2.08 9.38 -2.06 9.37 -2.05 9.38 -2.05 9.39 -2.04 9.39 -2.03 9.38 0.01 -0.02zm-19.56 -4.18l0.01 -0.02 -0.51 2.37 0.5 -2.35zm-32.13 150.49l32.13 -150.49 19.56 4.18 -32.13 150.49 -0.08 0.36 -19.48 -4.54zm19.56 4.18l-0.06 0.28 -0.02 0.08 0.08 -0.36zm-58.6 145.02l19.64 3.76 -19.44 -4.61 1.3 -4.61 1.3 -4.62 1.29 -4.62 1.28 -4.62 1.26 -4.62 1.27 -4.63 1.26 -4.63 1.24 -4.63 1.24 -4.64 1.24 -4.65 1.23 -4.63 1.22 -4.63 1.23 -4.65 1.2 -4.65 1.21 -4.65 1.21 -4.64 1.2 -4.65 1.2 -4.66 1.19 -4.66 1.19 -4.65 1.19 -4.65 1.18 -4.67 1.19 -4.66 1.17 -4.66 1.19 -4.67 1.18 -4.66 1.18 -4.67 1.18 -4.66 1.17 -4.66 1.17 -4.67 1.19 -4.67 1.17 -4.67 19.4 4.9 -1.19 4.67 -1.17 4.65 -1.17 4.67 -1.19 4.68 -1.18 4.66 -1.18 4.67 -1.18 4.66 -1.17 4.67 -1.19 4.68 -1.19 4.66 -1.18 4.67 -1.19 4.67 -1.19 4.67 -1.21 4.68 -1.2 4.66 -1.2 4.67 -1.21 4.68 -1.21 4.65 -1.22 4.67 -1.23 4.67 -1.22 4.67 -1.25 4.67 -1.24 4.65 -1.24 4.66 -1.26 4.67 -1.26 4.67 -1.27 4.65 -1.28 4.66 -1.3 4.66 -1.29 4.64 -1.3 4.66 -1.32 4.65 -19.44 -4.61zm19.44 4.61l-62.22 219.2 42.78 -223.81 19.44 4.61zm8.75 -156.15l19.56 4.18 0.07 -0.35 -0.84 4.75 -0.85 4.74 -0.85 4.75 -0.85 4.73 -0.85 4.75 -0.86 4.74 -0.86 4.73 -0.86 4.74 -0.87 4.73 -0.86 4.74 -0.89 4.74 -0.87 4.73 -0.88 4.73 -0.87 4.74 -0.89 4.74 -0.88 4.71 -0.88 4.74 -0.89 4.74 -0.89 4.72 -0.89 4.73 -0.89 4.74 -0.9 4.72 -0.89 4.73 -0.91 4.74 -0.9 4.72 -0.9 4.73 -0.9 4.72 -0.9 4.73 -0.9 4.73 -0.9 4.74 -0.91 4.72 -0.9 4.73 -19.64 -3.76 0.9 -4.73 0.91 -4.72 0.9 -4.72 0.9 -4.73 0.9 -4.73 0.9 -4.72 0.9 -4.73 0.9 -4.72 0.89 -4.72 0.89 -4.73 0.9 -4.72 0.89 -4.72 0.89 -4.73 0.89 -4.72 0.89 -4.72 0.88 -4.72 0.88 -4.73 0.89 -4.72 0.87 -4.72 0.88 -4.73 0.87 -4.73 0.87 -4.72 0.86 -4.72 0.87 -4.73 0.86 -4.72 0.86 -4.73 0.86 -4.72 0.85 -4.73 0.85 -4.73 0.85 -4.73 0.83 -4.72 0.84 -4.73 0.07 -0.35zm-0.07 0.35l0.02 -0.13 0.05 -0.22 -0.07 0.35zm51.75 -146.66l-32.12 150.49 -19.56 -4.18 32.12 -150.49 0.01 -0.02 19.55 4.2zm-19.56 -4.18l0.01 -0.02 -0.49 2.28 0.48 -2.26zm72.39 -300.08l19.26 5.42 0 -0.01 -2.58 9.25 -2.56 9.26 -2.52 9.27 -2.5 9.27 -2.47 9.28 -2.45 9.28 -2.42 9.3 -2.4 9.31 -2.38 9.3 -2.35 9.32 -2.33 9.31 -2.31 9.33 -2.29 9.33 -2.27 9.34 -2.25 9.34 -2.23 9.35 -2.22 9.34 -2.19 9.37 -2.19 9.35 -2.16 9.36 -2.15 9.38 -2.14 9.37 -2.13 9.37 -2.1 9.38 -2.1 9.38 -2.09 9.39 -2.08 9.39 -2.06 9.37 -2.05 9.39 -2.05 9.41 -2.05 9.39 -2.03 9.39 -19.54 -4.22 2.03 -9.41 2.05 -9.41 2.05 -9.41 2.05 -9.41 2.08 -9.41 2.08 -9.41 2.09 -9.41 2.1 -9.4 2.12 -9.4 2.13 -9.41 2.14 -9.39 2.15 -9.4 2.18 -9.4 2.19 -9.39 2.21 -9.39 2.22 -9.4 2.25 -9.37 2.25 -9.38 2.29 -9.38 2.29 -9.37 2.33 -9.37 2.33 -9.37 2.37 -9.36 2.38 -9.36 2.42 -9.35 2.44 -9.34 2.45 -9.34 2.49 -9.34 2.52 -9.33 2.54 -9.31 2.56 -9.32 2.6 -9.31 0 -0.01zm103.61 -291.99l18.22 8.26 0 0 -3.94 8.75 -3.87 8.77 -3.83 8.81 -3.76 8.81 -3.72 8.85 -3.67 8.86 -3.6 8.89 -3.56 8.9 -3.51 8.92 -3.47 8.96 -3.42 8.96 -3.36 8.97 -3.32 9.01 -3.28 9.01 -3.24 9.04 -3.18 9.05 -3.14 9.07 -3.11 9.08 -3.07 9.1 -3.02 9.11 -2.99 9.12 -2.95 9.14 -2.9 9.15 -2.87 9.16 -2.84 9.18 -2.81 9.18 -2.77 9.18 -2.73 9.21 -2.71 9.22 -2.67 9.22 -2.65 9.23 -2.61 9.24 -19.26 -5.42 2.63 -9.3 2.67 -9.29 2.69 -9.28 2.73 -9.28 2.75 -9.27 2.79 -9.28 2.83 -9.24 2.86 -9.24 2.89 -9.24 2.94 -9.23 2.97 -9.22 3.01 -9.2 3.06 -9.19 3.09 -9.18 3.13 -9.18 3.18 -9.15 3.22 -9.13 3.26 -9.14 3.32 -9.11 3.36 -9.09 3.4 -9.09 3.46 -9.06 3.49 -9.04 3.55 -9.04 3.6 -9 3.66 -8.99 3.71 -8.98 3.76 -8.95 3.82 -8.93 3.87 -8.91 3.93 -8.89 3.98 -8.87 0 0zm72.63 -138.11l16.68 11.02 0.2 -0.3 -2.49 4.09 -2.47 4.11 -2.45 4.12 -2.43 4.12 -2.41 4.14 -2.4 4.15 -2.38 4.15 -2.37 4.17 -2.34 4.18 -2.34 4.19 -2.31 4.19 -2.29 4.2 -2.29 4.22 -2.26 4.22 -2.25 4.24 -2.23 4.23 -2.21 4.24 -2.21 4.28 -2.18 4.25 -2.16 4.27 -2.16 4.3 -2.14 4.28 -2.11 4.29 -2.11 4.32 -2.1 4.31 -2.07 4.31 -2.05 4.33 -2.05 4.35 -2.04 4.34 -2.01 4.33 -1.99 4.36 -1.99 4.37 -18.22 -8.26 2.01 -4.41 2.03 -4.42 2.05 -4.43 2.06 -4.4 2.07 -4.39 2.09 -4.39 2.11 -4.39 2.12 -4.37 2.13 -4.36 2.15 -4.37 2.18 -4.36 2.18 -4.34 2.2 -4.35 2.22 -4.33 2.23 -4.32 2.25 -4.32 2.27 -4.31 2.29 -4.3 2.3 -4.28 2.31 -4.28 2.33 -4.28 2.37 -4.27 2.36 -4.25 2.38 -4.24 2.41 -4.25 2.42 -4.23 2.44 -4.21 2.45 -4.22 2.49 -4.2 2.49 -4.18 2.51 -4.19 2.53 -4.17 0.2 -0.3zm-0.2 0.3l0.2 -0.3 -0.22 0.34 0.02 -0.04zm93.84 -119.96l18.72 7.02 -2.06 3.33 -3.24 3.48 -3.22 3.5 -3.19 3.51 -3.17 3.54 -3.15 3.57 -3.13 3.59 -3.11 3.6 -3.08 3.62 -3.07 3.65 -3.04 3.66 -3.02 3.68 -3.01 3.7 -2.99 3.72 -2.96 3.73 -2.95 3.75 -2.93 3.78 -2.91 3.78 -2.88 3.79 -2.87 3.82 -2.86 3.83 -2.83 3.85 -2.81 3.86 -2.8 3.87 -2.78 3.9 -2.77 3.9 -2.74 3.91 -2.72 3.92 -2.71 3.95 -2.7 3.95 -2.67 3.96 -2.66 3.97 -2.65 3.99 -16.68 -11.02 2.69 -4.05 2.7 -4.05 2.73 -4.04 2.74 -4.01 2.75 -4.01 2.78 -4 2.8 -3.99 2.81 -3.98 2.84 -3.96 2.84 -3.95 2.87 -3.94 2.91 -3.93 2.9 -3.91 2.93 -3.9 2.96 -3.89 2.97 -3.86 2.99 -3.84 3.01 -3.85 3.04 -3.81 3.05 -3.8 3.07 -3.8 3.1 -3.76 3.12 -3.76 3.15 -3.73 3.16 -3.72 3.19 -3.7 3.21 -3.67 3.23 -3.65 3.25 -3.64 3.29 -3.63 3.3 -3.58 3.32 -3.58 -2.06 3.33zm18.72 7.02l-0.71 1.89 -1.35 1.44 2.06 -3.33zm0.03 -0.08l-0.03 0.08 -18.72 -7.02 0.03 -0.08 1.48 -2.64 17.24 9.66zm-17.24 -9.66l40.16 -51.47 -22.92 61.13 -17.24 -9.66z"/>
   </g>
   <g>
    <g>
     <path class="fil0" d="M2507.45 510.29c-105.71,0 -216.08,-11.82 -318.45,-36.41 -188.68,-45.34 -325.7,-127.59 -385.82,-231.62l7.07 -4.21c59,102.05 194.17,182.93 380.64,227.73 269.98,64.86 595.56,40.56 741.28,-55.34 84.36,-55.47 144.4,-119.12 188.99,-200.35l7.18 4.06c-45.27,82.45 -106.17,147.05 -191.71,203.29 -91.95,60.32 -254.29,92.74 -429.28,92.74l0.1 0.11z"/>
     <path id="_1_1" class="fil1" d="M2186.66 483.6l4.68 -19.44 0 0 9.53 2.25 9.59 2.17 9.62 2.1 9.67 2.02 9.71 1.96 9.74 1.88 9.78 1.81 9.81 1.74 9.83 1.66 9.86 1.59 9.89 1.52 9.91 1.45 9.93 1.37 9.94 1.3 9.97 1.23 9.97 1.16 9.98 1.08 9.99 1.02 10 0.94 10.01 0.88 10 0.8 9.99 0.73 10 0.66 9.99 0.6 9.98 0.51 9.97 0.46 9.95 0.38 9.95 0.3 9.92 0.25 9.9 0.17 9.88 0.11 9.85 0.03 0 20 -9.99 -0.03 -10.02 -0.11 -10.04 -0.17 -10.06 -0.25 -10.07 -0.32 -10.11 -0.38 -10.11 -0.46 -10.12 -0.53 -10.13 -0.6 -10.12 -0.66 -10.15 -0.75 -10.14 -0.82 -10.13 -0.88 -10.14 -0.96 -10.13 -1.02 -10.14 -1.1 -10.11 -1.18 -10.11 -1.25 -10.08 -1.32 -10.09 -1.39 -10.05 -1.47 -10.03 -1.54 -10.02 -1.61 -9.99 -1.7 -9.95 -1.76 -9.94 -1.83 -9.9 -1.92 -9.85 -1.98 -9.83 -2.06 -9.78 -2.14 -9.75 -2.21 -9.71 -2.29 0 0zm-388.6 -249.93l10.24 17.18 3.54 -13.59 5.65 9.35 6.1 9.23 6.53 9.12 6.96 9 7.39 8.88 7.82 8.75 8.24 8.63 8.65 8.49 9.07 8.36 9.49 8.23 9.88 8.07 10.3 7.94 10.69 7.78 11.08 7.63 11.48 7.47 11.86 7.32 12.23 7.15 12.62 6.98 12.99 6.82 13.35 6.64 13.71 6.46 14.08 6.29 14.42 6.1 14.77 5.92 15.12 5.74 15.45 5.53 15.79 5.34 16.12 5.15 16.44 4.94 16.75 4.74 17.08 4.52 17.39 4.33 -4.68 19.44 -17.69 -4.39 -17.38 -4.62 -17.07 -4.82 -16.76 -5.04 -16.44 -5.25 -16.13 -5.46 -15.79 -5.65 -15.46 -5.86 -15.13 -6.06 -14.78 -6.26 -14.44 -6.45 -14.09 -6.64 -13.73 -6.84 -13.37 -7.02 -13.02 -7.2 -12.65 -7.39 -12.26 -7.56 -11.9 -7.75 -11.52 -7.93 -11.11 -8.1 -10.74 -8.26 -10.34 -8.45 -9.93 -8.61 -9.53 -8.78 -9.11 -8.95 -8.7 -9.09 -8.26 -9.27 -7.85 -9.42 -7.4 -9.58 -6.97 -9.72 -6.52 -9.89 -6.07 -10.03 3.54 -13.59zm-3.54 13.59l-4.94 -8.54 8.48 -5.05 -3.54 13.59zm20.85 -0.62l-7.07 4.21 -10.24 -17.18 7.07 -4.21 13.78 3.58 -3.54 13.6zm-10.24 -17.18l8.71 -5.19 5.07 8.77 -13.78 -3.58zm388.1 226.6l-4.68 19.44 0 0 -17.48 -4.34 -17.18 -4.55 -16.87 -4.77 -16.56 -4.97 -16.25 -5.18 -15.91 -5.37 -15.61 -5.57 -15.27 -5.78 -14.94 -5.97 -14.6 -6.16 -14.25 -6.35 -13.92 -6.53 -13.55 -6.73 -13.2 -6.91 -12.85 -7.09 -12.47 -7.27 -12.11 -7.43 -11.74 -7.62 -11.36 -7.8 -10.96 -7.96 -10.58 -8.13 -10.19 -8.3 -9.8 -8.45 -9.39 -8.62 -8.98 -8.79 -8.56 -8.95 -8.14 -9.09 -7.72 -9.25 -7.3 -9.41 -6.85 -9.56 -6.41 -9.7 -5.96 -9.84 17.32 -10.02 5.54 9.16 5.99 9.06 6.41 8.94 6.84 8.83 7.26 8.71 7.7 8.59 8.1 8.47 8.52 8.33 8.93 8.2 9.34 8.07 9.75 7.94 10.14 7.79 10.54 7.64 10.92 7.5 11.32 7.34 11.69 7.19 12.07 7.03 12.45 6.87 12.82 6.71 13.17 6.53 13.54 6.37 13.89 6.17 14.24 6.02 14.58 5.83 14.93 5.64 15.27 5.45 15.59 5.27 15.93 5.08 16.24 4.87 16.55 4.67 16.88 4.47 17.18 4.28 0 0zm733.45 -53.98l10.98 16.72 0.01 -0.01 -14.64 9.07 -15.62 8.59 -16.56 8.13 -17.46 7.66 -18.31 7.21 -19.13 6.75 -19.89 6.29 -20.64 5.84 -21.33 5.37 -21.98 4.92 -22.59 4.45 -23.16 4 -23.69 3.53 -24.17 3.05 -24.62 2.6 -25 2.11 -25.38 1.65 -25.69 1.16 -25.97 0.69 -26.2 0.2 -26.39 -0.29 -26.53 -0.78 -26.65 -1.27 -26.7 -1.77 -26.73 -2.26 -26.7 -2.77 -26.64 -3.29 -26.53 -3.78 -26.39 -4.31 -26.18 -4.82 -25.96 -5.35 -25.69 -5.87 4.68 -19.44 25.25 5.77 25.54 5.25 25.78 4.76 25.99 4.23 26.15 3.74 26.26 3.23 26.32 2.73 26.35 2.24 26.34 1.75 26.27 1.25 26.17 0.76 26.03 0.29 25.82 -0.2 25.59 -0.67 25.31 -1.14 24.98 -1.63 24.62 -2.09 24.2 -2.54 23.75 -3.01 23.23 -3.45 22.7 -3.92 22.11 -4.37 21.48 -4.8 20.79 -5.23 20.06 -5.68 19.29 -6.09 18.49 -6.53 17.61 -6.93 16.72 -7.34 15.76 -7.73 14.76 -8.13 13.72 -8.49 0.01 -0.01zm199.4 -200.69l-9.84 17.4 13.69 -3.89 -4.31 7.69 -4.38 7.6 -4.5 7.5 -4.58 7.4 -4.7 7.29 -4.78 7.21 -4.9 7.12 -5 7.01 -5.1 6.94 -5.21 6.84 -5.33 6.76 -5.43 6.67 -5.54 6.59 -5.66 6.5 -5.77 6.43 -5.89 6.33 -6.01 6.28 -6.12 6.18 -6.24 6.12 -6.38 6.04 -6.48 5.96 -6.62 5.9 -6.74 5.84 -6.87 5.77 -7 5.7 -7.12 5.63 -7.26 5.57 -7.4 5.53 -7.54 5.46 -7.66 5.39 -7.8 5.35 -7.95 5.3 -10.98 -16.72 7.73 -5.14 7.58 -5.21 7.46 -5.25 7.3 -5.3 7.18 -5.35 7.04 -5.41 6.9 -5.45 6.78 -5.52 6.63 -5.57 6.52 -5.64 6.4 -5.7 6.26 -5.76 6.14 -5.82 6.02 -5.9 5.9 -5.96 5.79 -6.04 5.67 -6.11 5.55 -6.17 5.44 -6.26 5.34 -6.35 5.23 -6.41 5.11 -6.5 5.01 -6.58 4.92 -6.68 4.82 -6.77 4.7 -6.84 4.62 -6.95 4.52 -7.03 4.42 -7.14 4.34 -7.22 4.24 -7.34 4.15 -7.43 13.69 -3.89zm-13.69 3.89l4.87 -8.88 8.82 4.99 -13.69 3.89zm11.03 17.57l-7.18 -4.06 9.84 -17.4 7.18 4.06 3.85 13.51 -13.69 3.89zm9.84 -17.4l8.6 4.86 -4.75 8.65 -3.85 -13.51zm-191.14 220.35l-10.98 -16.72 0 0 7.84 -5.22 7.69 -5.28 7.57 -5.33 7.41 -5.37 7.28 -5.42 7.13 -5.49 7 -5.54 6.88 -5.6 6.74 -5.65 6.6 -5.71 6.47 -5.79 6.37 -5.85 6.23 -5.91 6.11 -5.98 5.98 -6.06 5.88 -6.12 5.74 -6.19 5.63 -6.28 5.53 -6.36 5.42 -6.43 5.31 -6.52 5.19 -6.59 5.08 -6.69 5 -6.77 4.88 -6.87 4.79 -6.95 4.68 -7.05 4.58 -7.15 4.5 -7.24 4.4 -7.34 4.31 -7.44 4.21 -7.55 17.54 9.62 -4.37 7.81 -4.45 7.7 -4.56 7.62 -4.66 7.5 -4.76 7.41 -4.86 7.31 -4.97 7.21 -5.06 7.13 -5.18 7.03 -5.28 6.95 -5.41 6.85 -5.51 6.78 -5.62 6.67 -5.73 6.6 -5.85 6.52 -5.98 6.43 -6.08 6.36 -6.22 6.28 -6.33 6.2 -6.47 6.13 -6.57 6.05 -6.71 5.99 -6.84 5.91 -6.96 5.85 -7.1 5.78 -7.22 5.72 -7.37 5.65 -7.5 5.6 -7.63 5.53 -7.77 5.47 -7.91 5.42 -8.06 5.38 0 0zm0 0l0 0 0 0 0 0zm-427.37 77.65l-14.8 13.46 7.4 -16.73 16.25 -0.09 16.17 -0.29 16.06 -0.46 15.97 -0.66 15.84 -0.84 15.72 -1.02 15.57 -1.22 15.43 -1.38 15.26 -1.57 15.09 -1.76 14.92 -1.93 14.71 -2.11 14.51 -2.29 14.31 -2.46 14.06 -2.64 13.84 -2.81 13.58 -2.99 13.33 -3.16 13.06 -3.33 12.78 -3.5 12.48 -3.67 12.18 -3.83 11.87 -4 11.53 -4.16 11.21 -4.33 10.85 -4.47 10.5 -4.65 10.13 -4.8 9.74 -4.94 9.36 -5.1 8.95 -5.25 8.53 -5.39 10.98 16.72 -9.11 5.75 -9.51 5.57 -9.88 5.4 -10.26 5.2 -10.61 5.02 -10.96 4.85 -11.29 4.67 -11.63 4.49 -11.95 4.3 -12.25 4.14 -12.56 3.95 -12.84 3.77 -13.12 3.6 -13.4 3.41 -13.65 3.24 -13.9 3.05 -14.14 2.87 -14.36 2.7 -14.59 2.52 -14.79 2.33 -14.99 2.15 -15.18 1.97 -15.35 1.78 -15.52 1.59 -15.67 1.42 -15.83 1.22 -15.96 1.04 -16.08 0.86 -16.21 0.66 -16.3 0.48 -16.39 0.29 -16.49 0.09 7.4 -16.73zm-14.8 13.46l-15.21 -16.73 22.61 0 -7.4 16.73zm0.1 0.11l-0.1 -0.11 14.8 -13.46 0.1 0.11 -7.4 16.73 -7.4 -3.27zm14.8 -13.46l15.21 16.73 -22.61 0 7.4 -16.73z"/>
    </g>
   </g>
   <g>
    <path class="fil1" d="M1015.56 2220.86l-1.56 -15.74 18.02 -1.16 21.96 -2.96 21.35 -4.53 3.9 15.32 -22.55 4.79 -23.1 3.12 -18.02 1.16zm-43.14 -0.42l0.46 -15.8 13.56 0.78 7.02 0 0.5 15.8 -7.98 0 -13.56 -0.78zm-63.88 -8.11l2.86 -15.54 3.23 0.66 24.33 3.92 23.95 2.68 9.97 0.59 -0.46 15.8 -10.85 -0.63 -24.75 -2.78 -25.05 -4.04 -3.23 -0.66zm-41.44 -9.37l3.52 -15.42 19.37 4.81 0.76 0.17 -2.86 15.54 -1.42 -0.29 -19.37 -4.81zm-61.29 -18.58l5.1 -14.96 3.71 1.32 25.3 8.18 25.14 7.23 5.56 1.39 -3.52 15.42 -6.14 -1.53 -25.66 -7.39 -25.78 -8.34 -3.71 -1.32zm-39.74 -14.73l5.52 -14.82 17.61 6.83 1.85 0.67 -5.1 14.96 -2.27 -0.81 -17.61 -6.83zm-58.58 -24.83l6.24 -14.52 24.47 10.85 25.51 10.63 7.88 3.05 -5.52 14.82 -8.26 -3.21 -25.85 -10.77 -24.47 -10.85zm-38.39 -18.2l6.84 -14.26 11.43 5.61 7.42 3.49 -6.56 14.38 -7.7 -3.61 -11.43 -5.61zm-56.49 -29l7.32 -14.02 17.14 9.12 25.06 12.86 13.81 6.78 -6.84 14.26 -14.07 -6.92 -25.28 -12.96 -17.14 -9.12zm-37.15 -20.41l7.72 -13.8 4.54 2.58 13.8 7.6 -7.54 13.9 -13.98 -7.7 -4.54 -2.58zm-54.85 -31.83l8.04 -13.62 11.06 6.6 23.81 13.89 19.66 11.16 -7.72 13.8 -19.82 -11.26 -23.97 -13.97 -11.06 -6.6zm-36.19 -21.92l8.28 -13.46 0.73 0.45 17.21 10.49 -8.16 13.54 -17.33 -10.57 -0.73 -0.45zm-53.64 -33.71l8.48 -13.34 10.02 6.41 21.78 13.74 21.64 13.44 -8.28 13.46 -21.74 -13.5 -21.88 -13.8 -10.02 -6.41zm-35.5 -22.87l8.6 -13.26 3.76 2.45 13.91 8.98 -8.54 13.3 -13.97 -9.02 -3.76 -2.45zm-52.98 -34.61l8.66 -13.22 17.93 11.75 18.99 12.41 16 10.41 -8.6 13.26 -16.04 -10.43 -19.01 -12.43 -17.93 -11.75z"/>
   </g>
   <g>
    <path class="fil1" d="M3849.9 2155.79l3.2 15.48 -14.52 3.03 -24.01 4.89 -23.51 4.68 -3.06 -15.52 23.45 -4.66 23.93 -4.87 14.52 -3.03zm41.14 -8.82l3.36 15.44 -6.51 1.44 -14.13 3.04 -3.28 -15.46 14.05 -3.02 6.51 -1.44zm61.55 -14.05l3.58 15.4 -17.52 4.12 -25.53 5.83 -18.72 4.14 -3.36 -15.44 18.62 -4.12 25.41 -5.81 17.52 -4.12zm40.83 -9.97l3.82 15.34 -6.77 1.71 -13.75 3.37 -3.7 -15.38 13.63 -3.33 6.77 -1.71zm61.03 -16.02l4.1 15.28 -15.56 4.25 -26.33 6.91 -19.42 4.92 -3.82 -15.34 19.3 -4.88 26.17 -6.89 15.56 -4.25zm40.43 -11.4l4.4 15.18 -3.46 1.02 -16.89 4.8 -4.24 -15.22 16.73 -4.76 3.46 -1.02zm60.27 -18.5l4.76 15.08 -11.28 3.64 -26.37 8.16 -22.98 6.8 -4.4 -15.18 22.8 -6.76 26.19 -8.1 11.28 -3.64zm39.91 -13.26l4.96 15.02 -19.97 6.75 -4.96 -15.02 19.97 -6.75zm59.06 -21.59l5.62 14.78 -7.08 2.76 -25.69 9.54 -25.94 9.18 -1.01 0.35 -4.96 -15.02 0.81 -0.27 25.72 -9.1 25.45 -9.46 7.08 -2.76zm39 -15.63l5.88 14.68 -19.5 8 -5.88 -14.68 19.5 -8zm57.35 -25.54l6.72 14.32 -5.03 2.43 -24.29 11.07 -24.71 10.69 -4.16 1.71 -5.88 -14.68 3.9 -1.61 24.43 -10.55 23.99 -10.95 5.03 -2.43zm37.6 -18.68l7.04 14.16 -18.78 9.59 -7.04 -14.16 18.78 -9.59zm54.56 -30.72l8.1 13.58 -6.55 4.03 -22.15 12.79 -22.75 12.34 -4.17 2.14 -7.04 -14.16 3.85 -1.96 22.39 -12.16 21.77 -12.57 6.55 -4.03zm35.09 -22.49l8.9 13.06 -0.15 0.11 -17.65 11.63 -8.5 -13.34 17.25 -11.35 0.15 -0.11zm50.03 -37.73l9.8 12.4 -11.75 9.66 -19.27 14.66 -19.91 14.07 -8.9 -13.06 19.47 -13.75 18.81 -14.32 11.75 -9.66zm23.27 -20.33l10.78 11.58 -8.06 7.19 -10.28 -12.02 7.56 -6.75z"/>
   </g>
   <g>
    <path class="fil1" d="M1249.53 4590.06l-4.3 15.22 -0.62 -0.16 -60.2 -17.84 4.68 -15.1 59.82 17.72 0.62 0.16zm40.71 10.97l-4.3 15.22 -20.36 -5.49 4.3 -15.22 20.36 5.49zm61.13 15.45l-3.94 15.32 -41.41 -10.13 -20.08 -5.42 4.3 -15.22 19.72 5.32 41.41 10.13zm40.87 9.55l-3.58 15.4 -20.08 -4.45 -0.68 -0.17 3.94 -15.32 0.32 0.09 20.08 4.45zm61.66 13.27l-3.26 15.46 -18.44 -3.69 -43.54 -9.64 3.58 -15.4 43.22 9.58 18.44 3.69zm41.34 8.28l-3.26 15.46 -20.67 -4.14 3.26 -15.46 20.67 4.14zm62.07 11.29l-2.96 15.54 -57.52 -10.38 -4.85 -0.99 3.26 -15.46 4.55 0.91 57.52 10.38zm41.44 6.86l-2.66 15.58 -20.81 -3.37 2.66 -15.58 20.81 3.37zm62.37 9.6l-2.4 15.62 -29.91 -4.33 -32.72 -5.31 2.66 -15.58 32.46 5.27 29.91 4.33zm41.61 5.96l-2.14 15.66 -4.56 -0.58 -16.45 -2.39 2.4 -15.62 16.19 2.35 4.56 0.58zm62.72 8.1l-2.14 15.66 -62.72 -8.1 2.14 -15.66 62.72 8.1zm41.76 4.76l-1.9 15.7 -20.94 -2.39 1.9 -15.7 20.94 2.39zm62.78 6.67l-1.68 15.72 -35.75 -3.58 -27.25 -3.11 1.9 -15.7 27.03 3.09 35.75 3.58zm41.86 4.09l-1.48 15.74 -8.65 -0.75 -12.44 -1.26 1.68 -15.72 12.24 1.24 8.65 0.75zm62.9 5.47l-1.28 15.76 -2.06 -0.15 -61.04 -5.34 1.48 -15.74 60.84 5.32 2.06 0.15zm42.04 3.16l-1.28 15.76 -21.02 -1.58 1.28 -15.76 21.02 1.58zm63 4.33l-1.1 15.78 -37.15 -2.38 -26.03 -1.97 1.28 -15.76 25.85 1.95 37.15 2.38zm42 2.61l-0.94 15.78 -8.82 -0.47 -12.3 -0.79 1.1 -15.78 12.14 0.79 8.82 0.47zm63.07 3.38l-0.78 15.8 -1.24 -0.05 -61.99 -3.35 0.94 -15.78 61.83 3.33 1.24 0.05zm42.12 1.86l-0.78 15.8 -21.06 -0.93 0.78 -15.8 21.06 0.93zm63.11 2.47l-0.62 15.8 -35.59 -1.25 -27.68 -1.22 0.78 -15.8 27.52 1.22 35.59 1.25zm42.08 1.43l-0.5 15.8 -6.6 -0.17 -14.53 -0.52 0.62 -15.8 14.41 0.52 6.6 0.17zm63.21 1.71l-0.5 15.8 -63.21 -1.71 0.5 -15.8 63.21 1.71zm42.08 0.82l-0.36 15.8 -21.07 -0.4 0.36 -15.8 21.07 0.4zm63.19 1l-0.26 15.8 -32.71 -0.4 -30.58 -0.6 0.36 -15.8 30.48 0.6 32.71 0.4zm42.09 0.51l-0.14 15.8 -3.65 -0.02 -17.49 -0.23 0.26 -15.8 17.37 0.23 3.65 0.02zm63.24 0.38l-0.14 15.8 -63.24 -0.38 0.14 -15.8 63.24 0.38zm42.12 0.04l-0.06 15.8 -21.08 -0.01 0.06 -15.8 21.08 0.01zm63.19 -0.12l0.04 15.8 -30.27 0.14 -33.02 -0.02 0.06 -15.8 32.92 0.02 30.27 -0.14zm42.12 -0.21l0.12 15.8 -1.77 0.01 -19.35 0.1 -0.04 -15.8 19.27 -0.1 1.77 -0.01zm63.24 -0.59l0.12 15.8 -63.24 0.59 -0.12 -15.8 63.24 -0.59zm42.12 -0.55l0.18 15.8 -21.07 0.28 -0.18 -15.8 21.07 -0.28zm63.21 -0.96l0.24 15.8 -30.11 0.51 -33.16 0.45 -0.18 -15.8 33.1 -0.45 30.11 -0.51zm42.12 -0.72l0.3 15.8 -2.78 0.05 -18.33 0.32 -0.24 -15.8 18.27 -0.32 2.78 -0.05zm63.23 -1.26l0.3 15.8 -63.23 1.26 -0.3 -15.8 63.23 -1.26zm42.12 -0.92l0.34 15.8 -21.07 0.46 -0.34 -15.8 21.07 -0.46zm63.22 -1.46l0.36 15.8 -34.1 0.81 -29.14 0.65 -0.34 -15.8 29.12 -0.65 34.1 -0.81zm42.14 -1.02l0.38 15.8 -8.58 0.21 -12.51 0.31 -0.36 -15.8 12.49 -0.31 8.58 -0.21zm63.21 -1.58l0.4 15.8 -4.88 0.12 -58.35 1.46 -0.38 -15.8 58.33 -1.46 4.88 -0.12zm42.14 -1.08l0.4 15.8 -21.07 0.54 -0.4 -15.8 21.07 -0.54zm63.23 -1.62l0.4 15.8 -44.15 1.13 -19.08 0.49 -0.4 -15.8 19.08 -0.49 44.15 -1.13zm42.02 -1.29l0.64 15.8 -4.57 0.21 -16.62 0.54 -0.4 -15.8 16.38 -0.54 4.57 -0.21zm62.67 -4.33l1.46 15.74 -0.26 0.02 -17.12 1.49 -17.03 1.27 -16.89 1.02 -12.19 0.59 -0.64 -15.8 11.97 -0.57 16.69 -1.02 16.81 -1.25 16.94 -1.47 0.26 -0.02zm41.73 -4.52l1.82 15.7 -7.82 0.95 -13.2 1.47 -1.66 -15.72 13.04 -1.45 7.82 -0.95zm62.29 -8.75l2.48 15.62 -1.01 0.16 -17.49 2.68 -17.47 2.51 -17.42 2.31 -9.56 1.17 -1.82 -15.7 9.38 -1.15 17.26 -2.29 17.31 -2.49 17.33 -2.66 1.01 -0.16zm41.42 -7.07l2.76 15.56 -7.7 1.4 -13.13 2.28 -2.62 -15.6 12.99 -2.24 7.7 -1.4zm61.79 -12.16l3.28 15.46 -0.28 0.06 -17.36 3.62 -17.43 3.47 -17.45 3.33 -9.79 1.78 -2.76 -15.56 9.65 -1.76 17.33 -3.31 17.29 -3.45 17.24 -3.58 0.28 -0.06zm41.03 -9.13l3.52 15.42 -7.06 1.64 -13.55 3.04 -3.4 -15.44 13.43 -3.02 7.06 -1.64zm61.2 -15l3.96 15.3 -0.99 0.26 -16.73 4.27 -16.87 4.18 -17 4.07 -10.05 2.34 -3.52 -15.42 9.95 -2.3 16.88 -4.05 16.75 -4.16 16.63 -4.23 0.99 -0.26zm40.61 -10.91l4.18 15.24 -8.82 2.44 -11.58 3.14 -4.06 -15.28 11.46 -3.1 8.82 -2.44zm60.52 -17.62l4.58 15.14 -6.04 1.84 -15.61 4.66 -15.83 4.62 -16.04 4.55 -7.4 2.05 -4.18 -15.24 7.32 -2.03 15.92 -4.53 15.73 -4.58 15.51 -4.64 6.04 -1.84zm39 -12.25l4.88 15.04 -14.86 4.76 -4.26 1.33 -4.68 -15.1 4.16 -1.31 14.76 -4.72z"/>
   </g>
  </g>
  <g>
   <path class="fil1" d="M1259 2118.59l-0.45 -29.83 138.92 -93.09 19.79 29.53 -138.91 93.1 -0.45 -29.83 -18.9 30.12zm0 0l-23.22 -14.57 22.77 -15.26 0.45 29.83zm151.14 73.82l-9.45 15.06 -141.69 -88.88 18.9 -30.12 141.69 88.88 -9.45 15.06zm2203.03 -114.66l-2316.98 35.36 -0.3 -20 2316.98 -35.36 0.3 20zm37.34 4.35l-19.8 -29.53 0.46 29.83 -141.69 -88.81 18.88 -30.13 141.69 88.81 0.46 29.83zm0 0l-0.46 -29.83 23.23 14.56 -22.77 15.27zm-148.81 78.4l-9.91 -14.77 138.92 -93.16 19.8 29.53 -138.91 93.16 -9.9 -14.76z"/>
  </g>
  <g>
   <path class="fil1" d="M1386.36 3152.43l-0.47 -29.83 138.85 -93.19 19.82 29.53 -138.85 93.19 -0.47 -29.84 -18.88 30.14zm0 0l-23.23 -14.55 22.76 -15.28 0.47 29.83zm151.19 73.72l-9.43 15.07 -141.76 -88.79 18.88 -30.14 141.75 88.79 -9.44 15.07zm2092.8 -114.43l-2206.8 35.21 -0.32 -20 2206.8 -35.21 0.32 20zm37.34 4.33l-19.82 -29.52 0.48 29.83 -141.75 -88.71 18.86 -30.15 141.75 88.72 0.48 29.83zm0 0l-0.48 -29.83 23.24 14.54 -22.76 15.29zm-148.76 78.5l-9.91 -14.76 138.85 -93.26 19.82 29.52 -138.85 93.26 -9.91 -14.76z"/>
  </g>
  <g>
   <path class="fil1" d="M1282.37 4253.31l-0.57 -29.83 138.53 -93.66 19.92 29.46 -138.53 93.66 -0.57 -29.83 -18.78 30.2zm0 0l-23.28 -14.47 22.71 -15.36 0.57 29.83zm151.44 73.2l-9.38 15.1 -142.06 -88.3 18.78 -30.2 142.05 88.3 -9.39 15.1zm2308.74 -125.73l-2423.02 46.9 -0.38 -20 2423.02 -46.9 0.38 20zm37.35 4.19l-19.92 -29.45 0.58 29.83 -142.05 -88.23 18.76 -30.21 142.05 88.24 0.58 29.82zm0 0l-0.58 -29.82 23.29 14.46 -22.71 15.36zm-148.49 79.01l-9.96 -14.73 138.53 -93.73 19.92 29.45 -138.53 93.74 -9.96 -14.73z"/>
  </g>
  <path class="fil1" d="M2111.79 2066.3l0 -211.17 102.18 0c24.3,0 43.14,4.37 56.54,13.05 13.4,8.69 20.09,21.12 20.09,37.3 0,28.72 -16.06,44.62 -48.25,47.74 16.81,1.19 30.49,6.3 40.99,15.27 10.5,8.97 15.78,21.52 15.78,37.58 0,9.88 -1.93,18.56 -5.79,26.06 -3.92,7.49 -8.74,13.34 -14.59,17.54 -5.79,4.2 -12.71,7.6 -20.78,10.22 -8,2.61 -15.49,4.31 -22.42,5.16 -6.92,0.85 -14.08,1.25 -21.51,1.25l-102.24 0zm44.28 -20.44l51.09 0c13.57,0 24.29,-3.4 32.3,-10.16 8,-6.75 11.98,-17.03 11.98,-30.76 0,-10.9 -3.86,-20.1 -11.64,-27.71 -7.78,-7.6 -18.62,-11.41 -32.59,-11.41l-34.11 0 0 -20.43 37.46 0c23.85,0 35.77,-11.47 35.77,-34.4 0,-23.62 -11.92,-35.43 -35.82,-35.43l-54.44 0 0 170.3z"/>
  <path id="_1_2" class="fil1" d="M2321.2 2012.43c0,-6.42 1.13,-17.09 3.35,-31.96 2.21,-14.87 4.43,-28.1 6.64,-39.74l3.29 -17.48 37.58 0c-5.51,44.73 -8.29,75.72 -8.29,93.04 0,11.98 2.73,21.29 8.12,28.04 5.45,6.7 14.65,10.05 27.59,10.05 23.9,0 35.82,-12.72 35.82,-38.09 0,-7.66 -0.85,-19.25 -2.5,-34.8 -1.64,-15.55 -3.29,-29.12 -4.99,-40.76l-2.45 -17.48 39.23 0c8.86,44.9 13.28,74.65 13.28,89.18 0,8.34 -1.36,15.78 -4.08,22.42 -2.73,6.59 -6.42,12.04 -11.13,16.35 -4.71,4.37 -10.39,7.89 -17.09,10.67 -6.69,2.78 -13.85,4.77 -21.45,6.02 -7.61,1.19 -15.84,1.82 -24.64,1.82 -8.86,0 -17.09,-0.63 -24.58,-1.82 -7.55,-1.25 -14.7,-3.24 -21.46,-6.02 -6.75,-2.78 -12.49,-6.3 -17.14,-10.67 -4.66,-4.31 -8.29,-9.76 -11.01,-16.35 -2.73,-6.64 -4.09,-14.08 -4.09,-22.42z"/>
  <path id="_2" class="fil1" d="M2487.98 2047.23l8.63 -13.34c0.79,0.56 1.87,1.3 3.23,2.27 1.42,0.91 4.37,2.55 8.92,4.88 4.54,2.33 9.25,4.43 14.13,6.19 4.88,1.76 10.96,3.4 18.28,4.88 7.32,1.53 14.59,2.27 21.8,2.27 22.7,0 34.06,-6.25 34.06,-18.68 0,-5.73 -3.07,-10.27 -9.14,-13.62 -6.08,-3.35 -18.85,-8.01 -38.21,-13.97 -16.29,-4.99 -28.38,-11.18 -36.21,-18.5 -7.89,-7.32 -11.81,-16.97 -11.81,-28.95 0,-12.15 5.68,-22.03 16.97,-29.52 11.3,-7.55 27.08,-11.3 47.35,-11.3 24.8,0 47.06,6.25 66.75,18.68l-8.11 13.62c-18.96,-11.29 -38.09,-16.97 -57.51,-16.97 -16.4,0 -24.58,5.45 -24.58,16.29 0,4.71 2.67,8.63 8.06,11.87 5.4,3.17 15.84,7.09 31.51,11.63 9.82,2.78 18.33,5.96 25.49,9.48 7.15,3.58 12.6,6.98 16.46,10.22 3.8,3.29 6.81,6.93 8.97,10.84 2.16,3.98 3.52,7.38 4.03,10.28 0.57,2.84 0.85,6.07 0.85,9.65 0,13.39 -5.96,24.12 -17.94,32.18 -11.98,8.07 -29.69,12.1 -53.19,12.1 -9.31,0 -18.33,-0.8 -27.19,-2.33 -8.8,-1.53 -16.18,-3.41 -22.2,-5.56 -5.96,-2.22 -11.24,-4.38 -15.89,-6.59 -4.6,-2.21 -8,-4.14 -10.22,-5.68l-3.29 -2.32z"/>
  <path id="_3" class="fil1" d="M2643.01 1938.58l0 -15.33 27.24 0 0 -40.93 40.88 0 0 40.93 35.76 0 0 15.33 -35.76 0 0 66.36c0,7.43 0.11,13.45 0.39,17.99 0.29,4.54 0.85,8.86 1.76,12.89 0.91,4.03 2.1,7.15 3.58,9.25 1.48,2.1 3.69,3.92 6.47,5.51 2.84,1.53 6.07,2.55 9.76,3.06 3.64,0.51 8.24,0.74 13.8,0.74l0 15.33c-14.19,0 -25.83,-0.91 -34.97,-2.67 -9.14,-1.76 -16.97,-4.88 -23.44,-9.43 -6.53,-4.48 -11.19,-10.61 -13.97,-18.44 -2.84,-7.84 -4.26,-17.72 -4.26,-29.69l0 -70.9 -27.24 0z"/>
  <path id="_4" class="fil1" d="M2748.59 2001.59c0,-9.94 1.76,-19.76 5.33,-29.41 3.52,-9.65 8.58,-18.33 15.05,-26.17 6.47,-7.83 14.76,-14.13 24.8,-18.96 10.11,-4.82 21.12,-7.21 33.1,-7.21 11.92,0 22.93,2.39 33.04,7.21 10.05,4.83 18.33,11.13 24.8,18.96 6.53,7.84 11.53,16.52 15.16,26.17 3.58,9.65 5.39,19.47 5.39,29.41 0,10.33 -1.64,19.58 -4.88,27.75 -3.29,8.12 -7.49,14.71 -12.66,19.65 -5.16,4.93 -11.24,9.02 -18.33,12.2 -7.1,3.24 -14.14,5.45 -21.06,6.7 -6.93,1.19 -14.08,1.82 -21.46,1.82 -7.44,0 -14.59,-0.63 -21.52,-1.82 -6.92,-1.25 -13.9,-3.46 -20.94,-6.7 -7.04,-3.18 -13.12,-7.27 -18.28,-12.2 -5.17,-4.94 -9.37,-11.53 -12.66,-19.65 -3.24,-8.17 -4.88,-17.42 -4.88,-27.75zm42.57 3.35c0,16.51 3.24,28.89 9.65,37.12 6.42,8.23 15.1,12.32 26.06,12.32 10.96,0 19.64,-4.09 26.11,-12.32 6.47,-8.23 9.71,-20.61 9.71,-37.12 0,-8.58 -0.57,-16.64 -1.76,-24.3 -1.14,-7.66 -3.01,-15.04 -5.56,-22.14 -2.5,-7.15 -6.25,-12.77 -11.07,-17.03 -4.89,-4.2 -10.73,-6.3 -17.43,-6.3 -6.76,0 -12.6,2.1 -17.43,6.3 -4.88,4.26 -8.57,9.88 -11.12,17.03 -2.56,7.1 -4.38,14.48 -5.51,22.14 -1.08,7.66 -1.65,15.72 -1.65,24.3z"/>
  <path id="_5" class="fil2 str1" d="M2111.79 2066.3l0 -211.17 102.18 0c24.3,0 43.14,4.37 56.54,13.05 13.4,8.69 20.09,21.12 20.09,37.3 0,28.72 -16.06,44.62 -48.25,47.74 16.81,1.19 30.49,6.3 40.99,15.27 10.5,8.97 15.78,21.52 15.78,37.58 0,9.88 -1.93,18.56 -5.79,26.06 -3.92,7.49 -8.74,13.34 -14.59,17.54 -5.79,4.2 -12.71,7.6 -20.78,10.22 -8,2.61 -15.49,4.31 -22.42,5.16 -6.92,0.85 -14.08,1.25 -21.51,1.25l-102.24 0zm44.28 -20.44l51.09 0c13.57,0 24.29,-3.4 32.3,-10.16 8,-6.75 11.98,-17.03 11.98,-30.76 0,-10.9 -3.86,-20.1 -11.64,-27.71 -7.78,-7.6 -18.62,-11.41 -32.59,-11.41l-34.11 0 0 -20.43 37.46 0c23.85,0 35.77,-11.47 35.77,-34.4 0,-23.62 -11.92,-35.43 -35.82,-35.43l-54.44 0 0 170.3z"/>
  <path id="_6" class="fil2 str1" d="M2321.2 2012.43c0,-6.42 1.13,-17.09 3.35,-31.96 2.21,-14.87 4.43,-28.1 6.64,-39.74l3.29 -17.48 37.58 0c-5.51,44.73 -8.29,75.72 -8.29,93.04 0,11.98 2.73,21.29 8.12,28.04 5.45,6.7 14.65,10.05 27.59,10.05 23.9,0 35.82,-12.72 35.82,-38.09 0,-7.66 -0.85,-19.25 -2.5,-34.8 -1.64,-15.55 -3.29,-29.12 -4.99,-40.76l-2.45 -17.48 39.23 0c8.86,44.9 13.28,74.65 13.28,89.18 0,8.34 -1.36,15.78 -4.08,22.42 -2.73,6.59 -6.42,12.04 -11.13,16.35 -4.71,4.37 -10.39,7.89 -17.09,10.67 -6.69,2.78 -13.85,4.77 -21.45,6.02 -7.61,1.19 -15.84,1.82 -24.64,1.82 -8.86,0 -17.09,-0.63 -24.58,-1.82 -7.55,-1.25 -14.7,-3.24 -21.46,-6.02 -6.75,-2.78 -12.49,-6.3 -17.14,-10.67 -4.66,-4.31 -8.29,-9.76 -11.01,-16.35 -2.73,-6.64 -4.09,-14.08 -4.09,-22.42z"/>
  <path id="_7" class="fil2 str1" d="M2487.98 2047.23l8.63 -13.34c0.79,0.56 1.87,1.3 3.23,2.27 1.42,0.91 4.37,2.55 8.92,4.88 4.54,2.33 9.25,4.43 14.13,6.19 4.88,1.76 10.96,3.4 18.28,4.88 7.32,1.53 14.59,2.27 21.8,2.27 22.7,0 34.06,-6.25 34.06,-18.68 0,-5.73 -3.07,-10.27 -9.14,-13.62 -6.08,-3.35 -18.85,-8.01 -38.21,-13.97 -16.29,-4.99 -28.38,-11.18 -36.21,-18.5 -7.89,-7.32 -11.81,-16.97 -11.81,-28.95 0,-12.15 5.68,-22.03 16.97,-29.52 11.3,-7.55 27.08,-11.3 47.35,-11.3 24.8,0 47.06,6.25 66.75,18.68l-8.11 13.62c-18.96,-11.29 -38.09,-16.97 -57.51,-16.97 -16.4,0 -24.58,5.45 -24.58,16.29 0,4.71 2.67,8.63 8.06,11.87 5.4,3.17 15.84,7.09 31.51,11.63 9.82,2.78 18.33,5.96 25.49,9.48 7.15,3.58 12.6,6.98 16.46,10.22 3.8,3.29 6.81,6.93 8.97,10.84 2.16,3.98 3.52,7.38 4.03,10.28 0.57,2.84 0.85,6.07 0.85,9.65 0,13.39 -5.96,24.12 -17.94,32.18 -11.98,8.07 -29.69,12.1 -53.19,12.1 -9.31,0 -18.33,-0.8 -27.19,-2.33 -8.8,-1.53 -16.18,-3.41 -22.2,-5.56 -5.96,-2.22 -11.24,-4.38 -15.89,-6.59 -4.6,-2.21 -8,-4.14 -10.22,-5.68l-3.29 -2.32z"/>
  <path id="_8" class="fil2 str1" d="M2643.01 1938.58l0 -15.33 27.24 0 0 -40.93 40.88 0 0 40.93 35.76 0 0 15.33 -35.76 0 0 66.36c0,7.43 0.11,13.45 0.39,17.99 0.29,4.54 0.85,8.86 1.76,12.89 0.91,4.03 2.1,7.15 3.58,9.25 1.48,2.1 3.69,3.92 6.47,5.51 2.84,1.53 6.07,2.55 9.76,3.06 3.64,0.51 8.24,0.74 13.8,0.74l0 15.33c-14.19,0 -25.83,-0.91 -34.97,-2.67 -9.14,-1.76 -16.97,-4.88 -23.44,-9.43 -6.53,-4.48 -11.19,-10.61 -13.97,-18.44 -2.84,-7.84 -4.26,-17.72 -4.26,-29.69l0 -70.9 -27.24 0z"/>
  <path id="_9" class="fil2 str1" d="M2748.59 2001.59c0,-9.94 1.76,-19.76 5.33,-29.41 3.52,-9.65 8.58,-18.33 15.05,-26.17 6.47,-7.83 14.76,-14.13 24.8,-18.96 10.11,-4.82 21.12,-7.21 33.1,-7.21 11.92,0 22.93,2.39 33.04,7.21 10.05,4.83 18.33,11.13 24.8,18.96 6.53,7.84 11.53,16.52 15.16,26.17 3.58,9.65 5.39,19.47 5.39,29.41 0,10.33 -1.64,19.58 -4.88,27.75 -3.29,8.12 -7.49,14.71 -12.66,19.65 -5.16,4.93 -11.24,9.02 -18.33,12.2 -7.1,3.24 -14.14,5.45 -21.06,6.7 -6.93,1.19 -14.08,1.82 -21.46,1.82 -7.44,0 -14.59,-0.63 -21.52,-1.82 -6.92,-1.25 -13.9,-3.46 -20.94,-6.7 -7.04,-3.18 -13.12,-7.27 -18.28,-12.2 -5.17,-4.94 -9.37,-11.53 -12.66,-19.65 -3.24,-8.17 -4.88,-17.42 -4.88,-27.75zm42.57 3.35c0,16.51 3.24,28.89 9.65,37.12 6.42,8.23 15.1,12.32 26.06,12.32 10.96,0 19.64,-4.09 26.11,-12.32 6.47,-8.23 9.71,-20.61 9.71,-37.12 0,-8.58 -0.57,-16.64 -1.76,-24.3 -1.14,-7.66 -3.01,-15.04 -5.56,-22.14 -2.5,-7.15 -6.25,-12.77 -11.07,-17.03 -4.89,-4.2 -10.73,-6.3 -17.43,-6.3 -6.76,0 -12.6,2.1 -17.43,6.3 -4.88,4.26 -8.57,9.88 -11.12,17.03 -2.56,7.1 -4.38,14.48 -5.51,22.14 -1.08,7.66 -1.65,15.72 -1.65,24.3z"/>
  <path class="fil1" d="M1985.8 2826.42c0,-14.08 2.5,-27.88 7.5,-41.45 4.99,-13.51 11.86,-25.65 20.6,-36.33 8.75,-10.73 19.76,-19.36 32.99,-25.88 13.22,-6.53 27.53,-9.82 42.8,-9.82 15.33,0 29.35,3.06 42.18,9.14 12.83,6.13 22.71,14.41 29.69,24.97l-17.14 12.15c-4.77,-6.41 -11.47,-12.09 -20.1,-16.92 -8.69,-4.82 -17.37,-7.2 -26.11,-7.2 -10.11,0 -19.02,1.81 -26.74,5.39 -7.67,3.63 -13.91,8.34 -18.62,14.13 -4.71,5.85 -8.57,12.89 -11.53,21.18 -3,8.23 -5.05,16.57 -6.18,25.03 -1.08,8.4 -1.65,17.54 -1.65,27.25 0,13.91 1.65,26.12 5,36.73 3.29,10.56 7.89,19.02 13.73,25.26 5.79,6.3 12.32,10.96 19.59,14.08 7.26,3.12 15.1,4.66 23.56,4.66 14.19,0 26.34,-2.9 36.39,-8.63 10.1,-5.79 17.65,-12.66 22.65,-20.67l16.97 12.32c-15.21,26.06 -41.33,39.12 -78.34,39.12 -10.45,0 -20.44,-0.97 -30.03,-2.9 -9.59,-1.93 -19.19,-5.39 -28.84,-10.33 -9.65,-4.94 -17.94,-11.24 -24.86,-18.9 -6.93,-7.67 -12.55,-17.66 -16.92,-30.04 -4.37,-12.37 -6.59,-26.45 -6.59,-42.34z"/>
  <path id="_1_3" class="fil1" d="M2190.51 2741.26c0,-5.33 1.99,-9.93 5.91,-13.91 3.97,-3.91 9.14,-5.9 15.55,-5.9 6.53,0 11.7,1.93 15.44,5.85 3.81,3.86 5.68,8.51 5.68,13.96 0,5.23 -1.87,9.77 -5.68,13.63 -3.74,3.8 -8.91,5.73 -15.44,5.73 -6.41,0 -11.58,-1.93 -15.55,-5.73 -3.92,-3.86 -5.91,-8.4 -5.91,-13.63zm1.02 186.26l0 -143.06 40.88 0 0 143.06 -40.88 0z"/>
  <path id="_2_4" class="fil1" d="M2259.2 2927.52l0 -143.06 40.88 0 0 10.11c15.33,-9.03 31.79,-13.51 49.44,-13.51 9.2,0 17.54,1.19 25.09,3.57 7.5,2.39 14.14,6.02 19.87,10.9 5.68,4.83 10.11,11.36 13.29,19.48 3.12,8.17 4.71,17.59 4.71,28.32 0,18.05 -5.68,46.16 -17.03,84.19l-28.95 0c2.27,-28.16 3.4,-47.34 3.4,-57.56 0,-16.75 -1.3,-29.86 -3.97,-39.34 -2.67,-9.48 -6.64,-16.13 -11.87,-19.99 -5.28,-3.8 -12.37,-5.73 -21.34,-5.73 -9.76,0 -20.66,2.27 -32.64,6.81l0 115.81 -40.88 0z"/>
  <path id="_3_5" class="fil1" d="M2420.94 2799.79l0 -15.33 27.24 0 0 -40.93 40.88 0 0 40.93 35.76 0 0 15.33 -35.76 0 0 66.36c0,7.44 0.11,13.46 0.4,18 0.28,4.54 0.85,8.85 1.76,12.89 0.9,4.03 2.1,7.15 3.57,9.25 1.48,2.1 3.69,3.92 6.47,5.51 2.84,1.53 6.08,2.55 9.77,3.06 3.63,0.51 8.23,0.74 13.79,0.74l0 15.33c-14.19,0 -25.83,-0.91 -34.97,-2.67 -9.14,-1.76 -16.97,-4.88 -23.44,-9.43 -6.53,-4.48 -11.19,-10.61 -13.97,-18.45 -2.84,-7.83 -4.26,-17.71 -4.26,-29.69l0 -70.9 -27.24 0z"/>
  <path id="_4_6" class="fil1" d="M2535.04 2873.65c0,-6.42 1.13,-17.09 3.35,-31.96 2.21,-14.88 4.43,-28.1 6.64,-39.74l3.29 -17.49 37.58 0c-5.5,44.74 -8.29,75.73 -8.29,93.05 0,11.98 2.73,21.29 8.12,28.04 5.45,6.7 14.65,10.05 27.59,10.05 23.9,0 35.82,-12.72 35.82,-38.09 0,-7.67 -0.85,-19.25 -2.5,-34.8 -1.64,-15.56 -3.29,-29.12 -4.99,-40.76l-2.44 -17.49 39.23 0c8.85,44.91 13.28,74.65 13.28,89.19 0,8.34 -1.36,15.78 -4.09,22.42 -2.72,6.59 -6.41,12.04 -11.13,16.35 -4.71,4.37 -10.38,7.89 -17.08,10.67 -6.7,2.78 -13.85,4.77 -21.46,6.02 -7.61,1.19 -15.84,1.82 -24.64,1.82 -8.85,0 -17.09,-0.63 -24.58,-1.82 -7.55,-1.25 -14.7,-3.24 -21.46,-6.02 -6.75,-2.78 -12.49,-6.3 -17.14,-10.67 -4.66,-4.31 -8.29,-9.76 -11.01,-16.35 -2.73,-6.64 -4.09,-14.08 -4.09,-22.42z"/>
  <path id="_5_7" class="fil1" d="M2715.05 2927.52l0 -143.06 40.88 0 0 10.17c12.66,-9.03 25.43,-13.57 38.43,-13.57 12.94,0 23.45,3.97 31.39,11.92l-20.43 25.66c-3.41,-3.01 -7.72,-5.51 -12.78,-7.44 -5.11,-1.93 -9.93,-2.89 -14.47,-2.89 -7.55,0 -14.93,1.13 -22.14,3.46l0 115.75 -40.88 0z"/>
  <path id="_6_8" class="fil1" d="M2801.97 2893.46c0,-9.08 2.04,-18.56 6.07,-28.44 4.03,-9.88 9.99,-19.47 17.77,-28.78 7.84,-9.31 16.92,-17.89 27.31,-25.66 10.39,-7.84 22.48,-14.37 36.44,-19.64 13.91,-5.23 28.33,-8.58 43.32,-9.88 4.88,24.46 11.52,49.95 20.04,76.46 8.45,26.52 17.82,49.85 27.98,70l-44.39 0c-7.78,-14.76 -15.56,-34.06 -23.45,-57.96 -7.89,-23.84 -13.73,-45.36 -17.59,-64.55 -14.65,6.42 -26.8,17.2 -36.45,32.31 -9.65,15.15 -14.48,29.91 -14.48,44.33 0,7.95 2.33,14.19 6.93,18.68 4.6,4.48 11.35,6.75 20.32,6.75 12.44,0 24.98,-3.97 37.64,-11.97l4.94 13.62c-8.97,7.32 -19.53,12.89 -31.73,16.63 -12.21,3.69 -24.64,5.57 -37.24,5.57 -12.44,0 -22.77,-3.24 -31.06,-9.77 -8.23,-6.47 -12.37,-15.72 -12.37,-27.7z"/>
  <path id="_7_9" class="fil2 str1" d="M1985.8 2826.42c0,-14.08 2.5,-27.88 7.5,-41.45 4.99,-13.51 11.86,-25.65 20.6,-36.33 8.75,-10.73 19.76,-19.36 32.99,-25.88 13.22,-6.53 27.53,-9.82 42.8,-9.82 15.33,0 29.35,3.06 42.18,9.14 12.83,6.13 22.71,14.41 29.69,24.97l-17.14 12.15c-4.77,-6.41 -11.47,-12.09 -20.1,-16.92 -8.69,-4.82 -17.37,-7.2 -26.11,-7.2 -10.11,0 -19.02,1.81 -26.74,5.39 -7.67,3.63 -13.91,8.34 -18.62,14.13 -4.71,5.85 -8.57,12.89 -11.53,21.18 -3,8.23 -5.05,16.57 -6.18,25.03 -1.08,8.4 -1.65,17.54 -1.65,27.25 0,13.91 1.65,26.12 5,36.73 3.29,10.56 7.89,19.02 13.73,25.26 5.79,6.3 12.32,10.96 19.59,14.08 7.26,3.12 15.1,4.66 23.56,4.66 14.19,0 26.34,-2.9 36.39,-8.63 10.1,-5.79 17.65,-12.66 22.65,-20.67l16.97 12.32c-15.21,26.06 -41.33,39.12 -78.34,39.12 -10.45,0 -20.44,-0.97 -30.03,-2.9 -9.59,-1.93 -19.19,-5.39 -28.84,-10.33 -9.65,-4.94 -17.94,-11.24 -24.86,-18.9 -6.93,-7.67 -12.55,-17.66 -16.92,-30.04 -4.37,-12.37 -6.59,-26.45 -6.59,-42.34z"/>
  <path id="_8_10" class="fil2 str1" d="M2190.51 2741.26c0,-5.33 1.99,-9.93 5.91,-13.91 3.97,-3.91 9.14,-5.9 15.55,-5.9 6.53,0 11.7,1.93 15.44,5.85 3.81,3.86 5.68,8.51 5.68,13.96 0,5.23 -1.87,9.77 -5.68,13.63 -3.74,3.8 -8.91,5.73 -15.44,5.73 -6.41,0 -11.58,-1.93 -15.55,-5.73 -3.92,-3.86 -5.91,-8.4 -5.91,-13.63zm1.02 186.26l0 -143.06 40.88 0 0 143.06 -40.88 0z"/>
  <path id="_9_11" class="fil2 str1" d="M2259.2 2927.52l0 -143.06 40.88 0 0 10.11c15.33,-9.03 31.79,-13.51 49.44,-13.51 9.2,0 17.54,1.19 25.09,3.57 7.5,2.39 14.14,6.02 19.87,10.9 5.68,4.83 10.11,11.36 13.29,19.48 3.12,8.17 4.71,17.59 4.71,28.32 0,18.05 -5.68,46.16 -17.03,84.19l-28.95 0c2.27,-28.16 3.4,-47.34 3.4,-57.56 0,-16.75 -1.3,-29.86 -3.97,-39.34 -2.67,-9.48 -6.64,-16.13 -11.87,-19.99 -5.28,-3.8 -12.37,-5.73 -21.34,-5.73 -9.76,0 -20.66,2.27 -32.64,6.81l0 115.81 -40.88 0z"/>
  <path id="_10" class="fil2 str1" d="M2420.94 2799.79l0 -15.33 27.24 0 0 -40.93 40.88 0 0 40.93 35.76 0 0 15.33 -35.76 0 0 66.36c0,7.44 0.11,13.46 0.4,18 0.28,4.54 0.85,8.85 1.76,12.89 0.9,4.03 2.1,7.15 3.57,9.25 1.48,2.1 3.69,3.92 6.47,5.51 2.84,1.53 6.08,2.55 9.77,3.06 3.63,0.51 8.23,0.74 13.79,0.74l0 15.33c-14.19,0 -25.83,-0.91 -34.97,-2.67 -9.14,-1.76 -16.97,-4.88 -23.44,-9.43 -6.53,-4.48 -11.19,-10.61 -13.97,-18.45 -2.84,-7.83 -4.26,-17.71 -4.26,-29.69l0 -70.9 -27.24 0z"/>
  <path id="_11" class="fil2 str1" d="M2535.04 2873.65c0,-6.42 1.13,-17.09 3.35,-31.96 2.21,-14.88 4.43,-28.1 6.64,-39.74l3.29 -17.49 37.58 0c-5.5,44.74 -8.29,75.73 -8.29,93.05 0,11.98 2.73,21.29 8.12,28.04 5.45,6.7 14.65,10.05 27.59,10.05 23.9,0 35.82,-12.72 35.82,-38.09 0,-7.67 -0.85,-19.25 -2.5,-34.8 -1.64,-15.56 -3.29,-29.12 -4.99,-40.76l-2.44 -17.49 39.23 0c8.85,44.91 13.28,74.65 13.28,89.19 0,8.34 -1.36,15.78 -4.09,22.42 -2.72,6.59 -6.41,12.04 -11.13,16.35 -4.71,4.37 -10.38,7.89 -17.08,10.67 -6.7,2.78 -13.85,4.77 -21.46,6.02 -7.61,1.19 -15.84,1.82 -24.64,1.82 -8.85,0 -17.09,-0.63 -24.58,-1.82 -7.55,-1.25 -14.7,-3.24 -21.46,-6.02 -6.75,-2.78 -12.49,-6.3 -17.14,-10.67 -4.66,-4.31 -8.29,-9.76 -11.01,-16.35 -2.73,-6.64 -4.09,-14.08 -4.09,-22.42z"/>
  <path id="_12" class="fil2 str1" d="M2715.05 2927.52l0 -143.06 40.88 0 0 10.17c12.66,-9.03 25.43,-13.57 38.43,-13.57 12.94,0 23.45,3.97 31.39,11.92l-20.43 25.66c-3.41,-3.01 -7.72,-5.51 -12.78,-7.44 -5.11,-1.93 -9.93,-2.89 -14.47,-2.89 -7.55,0 -14.93,1.13 -22.14,3.46l0 115.75 -40.88 0z"/>
  <path id="_13" class="fil2 str1" d="M2801.97 2893.46c0,-9.08 2.04,-18.56 6.07,-28.44 4.03,-9.88 9.99,-19.47 17.77,-28.78 7.84,-9.31 16.92,-17.89 27.31,-25.66 10.39,-7.84 22.48,-14.37 36.44,-19.64 13.91,-5.23 28.33,-8.58 43.32,-9.88 4.88,24.46 11.52,49.95 20.04,76.46 8.45,26.52 17.82,49.85 27.98,70l-44.39 0c-7.78,-14.76 -15.56,-34.06 -23.45,-57.96 -7.89,-23.84 -13.73,-45.36 -17.59,-64.55 -14.65,6.42 -26.8,17.2 -36.45,32.31 -9.65,15.15 -14.48,29.91 -14.48,44.33 0,7.95 2.33,14.19 6.93,18.68 4.6,4.48 11.35,6.75 20.32,6.75 12.44,0 24.98,-3.97 37.64,-11.97l4.94 13.62c-8.97,7.32 -19.53,12.89 -31.73,16.63 -12.21,3.69 -24.64,5.57 -37.24,5.57 -12.44,0 -22.77,-3.24 -31.06,-9.77 -8.23,-6.47 -12.37,-15.72 -12.37,-27.7z"/>
  <path class="fil1" d="M2006.58 4048.17c0,-14.08 2.5,-27.88 7.5,-41.45 4.99,-13.51 11.86,-25.65 20.6,-36.33 8.75,-10.73 19.76,-19.36 32.99,-25.88 13.22,-6.53 27.53,-9.82 42.8,-9.82 15.33,0 29.35,3.06 42.18,9.14 12.83,6.13 22.71,14.41 29.69,24.97l-17.14 12.15c-4.77,-6.41 -11.47,-12.09 -20.1,-16.92 -8.69,-4.82 -17.37,-7.2 -26.11,-7.2 -10.11,0 -19.02,1.81 -26.74,5.39 -7.67,3.63 -13.91,8.34 -18.62,14.13 -4.71,5.85 -8.57,12.89 -11.53,21.18 -3,8.23 -5.05,16.57 -6.18,25.03 -1.08,8.4 -1.65,17.54 -1.65,27.25 0,13.91 1.65,26.12 5,36.73 3.29,10.56 7.89,19.02 13.73,25.26 5.79,6.3 12.32,10.96 19.59,14.08 7.26,3.12 15.1,4.66 23.56,4.66 14.19,0 26.34,-2.9 36.39,-8.63 10.1,-5.79 17.65,-12.66 22.65,-20.67l16.97 12.32c-15.21,26.06 -41.33,39.12 -78.34,39.12 -10.45,0 -20.44,-0.97 -30.03,-2.9 -9.59,-1.93 -19.19,-5.39 -28.84,-10.33 -9.65,-4.94 -17.94,-11.24 -24.86,-18.9 -6.93,-7.67 -12.55,-17.66 -16.92,-30.04 -4.37,-12.37 -6.59,-26.45 -6.59,-42.34z"/>
  <path id="_1_12" class="fil1" d="M2205.9 4115.21c0,-9.08 2.04,-18.56 6.07,-28.44 4.03,-9.88 9.99,-19.47 17.77,-28.78 7.84,-9.31 16.92,-17.89 27.31,-25.66 10.39,-7.84 22.48,-14.37 36.44,-19.64 13.91,-5.23 28.33,-8.58 43.32,-9.88 4.88,24.46 11.52,49.95 20.04,76.46 8.45,26.52 17.82,49.85 27.98,70l-44.39 0c-7.78,-14.76 -15.56,-34.06 -23.45,-57.96 -7.89,-23.84 -13.73,-45.36 -17.59,-64.55 -14.65,6.42 -26.8,17.2 -36.45,32.31 -9.65,15.15 -14.48,29.91 -14.48,44.33 0,7.95 2.33,14.19 6.93,18.68 4.6,4.48 11.35,6.75 20.32,6.75 12.44,0 24.98,-3.97 37.64,-11.97l4.94 13.62c-8.97,7.32 -19.53,12.89 -31.73,16.63 -12.21,3.69 -24.64,5.57 -37.24,5.57 -12.44,0 -22.77,-3.24 -31.06,-9.77 -8.23,-6.47 -12.37,-15.72 -12.37,-27.7z"/>
  <path id="_2_13" class="fil1" d="M2388.01 4086.2c0,-9.93 1.99,-19.36 5.96,-28.21 4.03,-8.86 9.93,-17.09 17.88,-24.7 7.89,-7.6 18.39,-14.02 31.45,-19.36 13.06,-5.33 28.16,-9.02 45.19,-11.12l0 15.33c-19.7,3.23 -34.29,10.5 -43.71,21.79 -9.48,11.36 -14.2,24.24 -14.2,38.78 0,16.35 3.52,28.78 10.62,37.29 7.1,8.58 17.2,12.83 30.26,12.83 8.34,0 17.99,-2.15 28.95,-6.47l0 -184.27 40.87 0 0 211.18 -40.87 0 0 -9.82c-12.43,8.8 -27.82,13.23 -46.21,13.23 -19.76,0 -35.71,-5.79 -47.91,-17.32 -12.21,-11.58 -18.28,-27.93 -18.28,-49.16z"/>
  <path id="_3_14" class="fil1" d="M2564.62 4080.47c0,-13.74 3.18,-26.46 9.48,-38.15 6.3,-11.7 15.67,-21.23 28.04,-28.56 12.32,-7.32 26.57,-10.95 42.64,-10.95 3.4,0 6.86,0.11 10.27,0.4 3.46,0.28 7.83,1.02 13.11,2.27 5.34,1.19 10.28,2.89 14.76,4.99 4.54,2.1 9.26,5.17 14.14,9.14 4.88,3.97 9.02,8.63 12.43,13.97 3.46,5.33 6.3,12.14 8.52,20.38 2.21,8.28 3.29,17.42 3.29,27.53l-101.16 0 0 -15.33 56.88 0c-0.57,-32.02 -11.92,-48.02 -34.06,-48.02 -23.84,0 -35.77,21.11 -35.77,63.35 0,18.96 3.92,32.98 11.81,42.12 7.89,9.14 18.11,13.74 30.77,13.74 10.05,0 19.3,-2.1 27.7,-6.25 8.46,-4.14 14.54,-9.42 18.28,-15.89l11.92 8.51c-5.16,8.75 -13.17,15.79 -23.89,21.07 -10.73,5.27 -23.17,7.89 -37.36,7.89 -11.75,0 -22.42,-1.37 -32.07,-4.09 -9.65,-2.73 -18.23,-6.87 -25.78,-12.49 -7.55,-5.56 -13.39,-13.11 -17.65,-22.59 -4.2,-9.48 -6.3,-20.5 -6.3,-33.04z"/>
  <path id="_4_15" class="fil1" d="M2744.63 4149.27l0 -143.06 40.88 0 0 10.17c12.66,-9.03 25.43,-13.57 38.43,-13.57 12.94,0 23.45,3.97 31.39,11.92l-20.43 25.66c-3.41,-3.01 -7.72,-5.51 -12.78,-7.44 -5.11,-1.93 -9.93,-2.89 -14.47,-2.89 -7.55,0 -14.93,1.13 -22.14,3.46l0 115.75 -40.88 0z"/>
  <path id="_5_16" class="fil1" d="M2831.55 4115.21c0,-9.08 2.04,-18.56 6.07,-28.44 4.03,-9.88 9.99,-19.47 17.77,-28.78 7.84,-9.31 16.92,-17.89 27.31,-25.66 10.39,-7.84 22.48,-14.37 36.44,-19.64 13.91,-5.23 28.33,-8.58 43.32,-9.88 4.88,24.46 11.52,49.95 20.04,76.46 8.45,26.52 17.82,49.85 27.98,70l-44.39 0c-7.78,-14.76 -15.56,-34.06 -23.45,-57.96 -7.89,-23.84 -13.73,-45.36 -17.59,-64.55 -14.65,6.42 -26.8,17.2 -36.45,32.31 -9.65,15.15 -14.48,29.91 -14.48,44.33 0,7.95 2.33,14.19 6.93,18.68 4.6,4.48 11.35,6.75 20.32,6.75 12.44,0 24.98,-3.97 37.64,-11.97l4.94 13.62c-8.97,7.32 -19.53,12.89 -31.73,16.63 -12.21,3.69 -24.64,5.57 -37.24,5.57 -12.44,0 -22.77,-3.24 -31.06,-9.77 -8.23,-6.47 -12.37,-15.72 -12.37,-27.7z"/>
  <path id="_6_17" class="fil2 str1" d="M2006.58 4048.17c0,-14.08 2.5,-27.88 7.5,-41.45 4.99,-13.51 11.86,-25.65 20.6,-36.33 8.75,-10.73 19.76,-19.36 32.99,-25.88 13.22,-6.53 27.53,-9.82 42.8,-9.82 15.33,0 29.35,3.06 42.18,9.14 12.83,6.13 22.71,14.41 29.69,24.97l-17.14 12.15c-4.77,-6.41 -11.47,-12.09 -20.1,-16.92 -8.69,-4.82 -17.37,-7.2 -26.11,-7.2 -10.11,0 -19.02,1.81 -26.74,5.39 -7.67,3.63 -13.91,8.34 -18.62,14.13 -4.71,5.85 -8.57,12.89 -11.53,21.18 -3,8.23 -5.05,16.57 -6.18,25.03 -1.08,8.4 -1.65,17.54 -1.65,27.25 0,13.91 1.65,26.12 5,36.73 3.29,10.56 7.89,19.02 13.73,25.26 5.79,6.3 12.32,10.96 19.59,14.08 7.26,3.12 15.1,4.66 23.56,4.66 14.19,0 26.34,-2.9 36.39,-8.63 10.1,-5.79 17.65,-12.66 22.65,-20.67l16.97 12.32c-15.21,26.06 -41.33,39.12 -78.34,39.12 -10.45,0 -20.44,-0.97 -30.03,-2.9 -9.59,-1.93 -19.19,-5.39 -28.84,-10.33 -9.65,-4.94 -17.94,-11.24 -24.86,-18.9 -6.93,-7.67 -12.55,-17.66 -16.92,-30.04 -4.37,-12.37 -6.59,-26.45 -6.59,-42.34z"/>
  <path id="_7_18" class="fil2 str1" d="M2205.9 4115.21c0,-9.08 2.04,-18.56 6.07,-28.44 4.03,-9.88 9.99,-19.47 17.77,-28.78 7.84,-9.31 16.92,-17.89 27.31,-25.66 10.39,-7.84 22.48,-14.37 36.44,-19.64 13.91,-5.23 28.33,-8.58 43.32,-9.88 4.88,24.46 11.52,49.95 20.04,76.46 8.45,26.52 17.82,49.85 27.98,70l-44.39 0c-7.78,-14.76 -15.56,-34.06 -23.45,-57.96 -7.89,-23.84 -13.73,-45.36 -17.59,-64.55 -14.65,6.42 -26.8,17.2 -36.45,32.31 -9.65,15.15 -14.48,29.91 -14.48,44.33 0,7.95 2.33,14.19 6.93,18.68 4.6,4.48 11.35,6.75 20.32,6.75 12.44,0 24.98,-3.97 37.64,-11.97l4.94 13.62c-8.97,7.32 -19.53,12.89 -31.73,16.63 -12.21,3.69 -24.64,5.57 -37.24,5.57 -12.44,0 -22.77,-3.24 -31.06,-9.77 -8.23,-6.47 -12.37,-15.72 -12.37,-27.7z"/>
  <path id="_8_19" class="fil2 str1" d="M2388.01 4086.2c0,-9.93 1.99,-19.36 5.96,-28.21 4.03,-8.86 9.93,-17.09 17.88,-24.7 7.89,-7.6 18.39,-14.02 31.45,-19.36 13.06,-5.33 28.16,-9.02 45.19,-11.12l0 15.33c-19.7,3.23 -34.29,10.5 -43.71,21.79 -9.48,11.36 -14.2,24.24 -14.2,38.78 0,16.35 3.52,28.78 10.62,37.29 7.1,8.58 17.2,12.83 30.26,12.83 8.34,0 17.99,-2.15 28.95,-6.47l0 -184.27 40.87 0 0 211.18 -40.87 0 0 -9.82c-12.43,8.8 -27.82,13.23 -46.21,13.23 -19.76,0 -35.71,-5.79 -47.91,-17.32 -12.21,-11.58 -18.28,-27.93 -18.28,-49.16z"/>
  <path id="_9_20" class="fil2 str1" d="M2564.62 4080.47c0,-13.74 3.18,-26.46 9.48,-38.15 6.3,-11.7 15.67,-21.23 28.04,-28.56 12.32,-7.32 26.57,-10.95 42.64,-10.95 3.4,0 6.86,0.11 10.27,0.4 3.46,0.28 7.83,1.02 13.11,2.27 5.34,1.19 10.28,2.89 14.76,4.99 4.54,2.1 9.26,5.17 14.14,9.14 4.88,3.97 9.02,8.63 12.43,13.97 3.46,5.33 6.3,12.14 8.52,20.38 2.21,8.28 3.29,17.42 3.29,27.53l-101.16 0 0 -15.33 56.88 0c-0.57,-32.02 -11.92,-48.02 -34.06,-48.02 -23.84,0 -35.77,21.11 -35.77,63.35 0,18.96 3.92,32.98 11.81,42.12 7.89,9.14 18.11,13.74 30.77,13.74 10.05,0 19.3,-2.1 27.7,-6.25 8.46,-4.14 14.54,-9.42 18.28,-15.89l11.92 8.51c-5.16,8.75 -13.17,15.79 -23.89,21.07 -10.73,5.27 -23.17,7.89 -37.36,7.89 -11.75,0 -22.42,-1.37 -32.07,-4.09 -9.65,-2.73 -18.23,-6.87 -25.78,-12.49 -7.55,-5.56 -13.39,-13.11 -17.65,-22.59 -4.2,-9.48 -6.3,-20.5 -6.3,-33.04z"/>
  <path id="_10_21" class="fil2 str1" d="M2744.63 4149.27l0 -143.06 40.88 0 0 10.17c12.66,-9.03 25.43,-13.57 38.43,-13.57 12.94,0 23.45,3.97 31.39,11.92l-20.43 25.66c-3.41,-3.01 -7.72,-5.51 -12.78,-7.44 -5.11,-1.93 -9.93,-2.89 -14.47,-2.89 -7.55,0 -14.93,1.13 -22.14,3.46l0 115.75 -40.88 0z"/>
  <path id="_11_22" class="fil2 str1" d="M2831.55 4115.21c0,-9.08 2.04,-18.56 6.07,-28.44 4.03,-9.88 9.99,-19.47 17.77,-28.78 7.84,-9.31 16.92,-17.89 27.31,-25.66 10.39,-7.84 22.48,-14.37 36.44,-19.64 13.91,-5.23 28.33,-8.58 43.32,-9.88 4.88,24.46 11.52,49.95 20.04,76.46 8.45,26.52 17.82,49.85 27.98,70l-44.39 0c-7.78,-14.76 -15.56,-34.06 -23.45,-57.96 -7.89,-23.84 -13.73,-45.36 -17.59,-64.55 -14.65,6.42 -26.8,17.2 -36.45,32.31 -9.65,15.15 -14.48,29.91 -14.48,44.33 0,7.95 2.33,14.19 6.93,18.68 4.6,4.48 11.35,6.75 20.32,6.75 12.44,0 24.98,-3.97 37.64,-11.97l4.94 13.62c-8.97,7.32 -19.53,12.89 -31.73,16.63 -12.21,3.69 -24.64,5.57 -37.24,5.57 -12.44,0 -22.77,-3.24 -31.06,-9.77 -8.23,-6.47 -12.37,-15.72 -12.37,-27.7z"/>
 </g>
</svg>
